<?xml  version="1.0" encoding="UTF-8"?>
<!DOCTYPE svg PUBLIC "-//W3C//DTD SVG 1.0//EN" "http://www.w3.org/TR/2001/REC-SVG-20010904/DTD/svg10.dtd" >
<svg xmlns="http://www.w3.org/2000/svg" >
<metadata>
<version>1.0</version>
<id><![CDATA[Alternate Gothic W02 No 2 Disp]]></id>
<vendor>Monotype Imaging Inc.</vendor>
<credits>
<name>Fonts.com WebFonts</name>
<URL>http://webfonts.fonts.com</URL>
<role>Home of the Web fonts</role>
</credits>
<license>
<URL>http://webfonts.fonts.com/Legal</URL>
</license>
<copyright></copyright>
<trademark></trademark>
<licensee>
<name></name>
</licensee>
</metadata>
<defs >
<font horiz-adv-x="366" id="cc1f9791-cf49-4f20-9048-900f71cb652d">
<font-face font-family="" panose-1="4 0 5 0 0 0 0 0 0 0" ascent="749" descent="-251" units-per-em="1000" alphabetic="0">
</font-face>
<missing-glyph horiz-adv-x="0" />

<glyph unicode="&#xA;" />
<glyph unicode="&#xD;" />
<glyph unicode=" " horiz-adv-x="177" />
<glyph unicode="!" horiz-adv-x="223" d="M160 0H63V103H160V0ZM80 197L60 667H163L143 197H80Z"  />
<glyph unicode="&quot;" horiz-adv-x="357" d="M224 400L208 667H313L296 400H224ZM59 400L43 667H148L131 400H59Z"  />
<glyph unicode="#" horiz-adv-x="400" d="M175 409L149 250H224L250 409H175ZM292 667H349L318 477H366L355 409H307L281 250H334L323 182H270L240 0H183L213 182H138L109 0H51L81 182H33L45 250H92L118 409H67L80 476H129L160 667H218L187 477H261L292 667Z"  />
<glyph unicode="$" horiz-adv-x="380" d="M256 541Q227 590 188 590Q160 590 143 569T126 513Q126 473 152 440Q157 432 161 428T172 416T194 397T234 364Q292 317 317 271T343 165Q343 21 210 -3V-101H157V-3Q120 0 85 24T30 84L99 142Q116 107 135 92T181 77Q214 77 232 100T250 166Q250 188 246 204T230 238T196 275T136 328Q83 372 60 414T36 510Q36 640 157 669V736H210V669Q281 660 323 602L256 541Z"  />
<glyph unicode="%" horiz-adv-x="532" d="M386 91Q386 60 391 51T411 41Q425 41 430 50T435 91V240Q435 270 430 279T411 289Q396 289 391 280T386 240V91ZM492 92Q492 64 489 49T475 21Q464 6 448 -2T411 -10Q369 -10 346 21Q336 34 333 49T329 92V239Q329 267 332 282T346 310Q368 340 411 340Q431 340 447 332T475 310Q485 297 488 282T492 239V92ZM440 667L152 0H92L380 667H440ZM97 428Q97 397 102 388T122 378Q136 378 141 387T146 428V576Q146 607 141 616T122 626Q107 626 102 617T97 576V428ZM203 428Q203 400 200 385T186 357Q175 343 158 335T122 327Q102 327 85 335T57 357Q47 370 44 385T40 428V576Q40 603 43 618T57 647Q79 677 122 677Q142 677 158 669T186 647Q196 634 199 619T203 576V428Z"  />
<glyph unicode="&amp;" horiz-adv-x="444" d="M161 251Q144 220 137 197T130 153Q130 126 146 110T189 93Q206 93 218 98T242 117Q215 157 197 187T161 251ZM186 422Q232 482 232 549Q232 611 195 611Q175 611 164 591T153 535Q153 483 182 416L186 422ZM411 299Q401 248 388 209T354 128Q361 116 375 106T406 90V-10Q370 -4 346 9T299 48Q271 18 245 6T184 -7Q117 -7 79 33T40 144Q40 168 43 187T54 228T78 274T118 336Q93 398 82 441T71 522Q71 556 80 584T106 632T146 663T199 674Q253 674 284 639T315 544Q315 518 311 495T295 448T265 396T220 334Q227 319 236 302T256 267T276 232T296 201Q307 224 314 250T330 318L411 299Z"  />
<glyph unicode="&apos;" horiz-adv-x="195" d="M59 400L43 667H151L134 400H59Z"  />
<glyph unicode="(" horiz-adv-x="293" d="M186 -124Q115 -14 82 85T49 290Q49 395 82 494T186 704L252 668Q193 572 166 481T139 290Q139 190 166 99T252 -88L186 -124Z"  />
<glyph unicode=")" horiz-adv-x="293" d="M108 704Q179 594 212 495T245 290Q245 185 212 85T108 -124L42 -88Q100 8 127 99T155 290Q155 390 128 481T42 668L108 704Z"  />
<glyph unicode="*" horiz-adv-x="313" d="M40 556L63 625L127 595L120 667H193L186 595L250 625L273 556L203 542L251 489L192 445L157 507L121 445L62 489L110 541L40 556Z"  />
<glyph unicode="+" horiz-adv-x="380" d="M338 301H231V196H150V301H43V379H150V484H231V379H338V301Z"  />
<glyph unicode="&#x2c;" horiz-adv-x="180" d="M139 0L87 -116H42L77 0H42V103H139V0Z"  />
<glyph unicode="-" horiz-adv-x="140" d="M140 208H0V298H140V208Z"  />
<glyph unicode="." horiz-adv-x="180" d="M139 0H42V103H139V0Z"  />
<glyph unicode="/" horiz-adv-x="371" d="M351 667L84 -67H13L280 667H351Z"  />
<glyph unicode="0" horiz-adv-x="380" d="M138 185Q138 149 139 134T145 107Q156 78 191 78Q225 78 236 107Q241 119 242 134T243 185V482Q243 518 242 533T236 560Q225 589 191 589Q156 589 145 560Q140 548 139 533T138 482V185ZM338 186Q338 159 337 139T332 102T322 73T307 48Q287 21 257 6T191 -10Q155 -10 124 5T74 48Q65 60 59 73T50 102T45 138T43 186V481Q43 508 44 528T49 565T59 594T74 619Q93 646 124 661T191 677Q226 677 257 662T307 619Q316 607 322 594T331 565T336 529T338 481V186Z"  />
<glyph unicode="1" horiz-adv-x="380" d="M253 0H158V524H75V586Q104 593 135 615T189 667H253V0Z"  />
<glyph unicode="2" horiz-adv-x="380" d="M328 0H36V91Q95 177 134 241T198 354T232 442T242 517Q242 589 192 589Q162 589 148 565T134 487V480Q134 475 135 468H42Q41 476 41 482V491Q41 582 80 629T194 677Q261 677 299 634T338 514Q338 461 317 401T248 258Q238 241 230 227T210 194T181 151T138 88H328V0Z"  />
<glyph unicode="3" horiz-adv-x="380" d="M141 391Q169 392 187 397T215 413T228 443T232 494Q232 544 221 566T186 588Q149 588 143 540Q141 532 141 519V485H49V501Q49 582 86 629T189 677Q253 677 287 630T322 494Q322 434 309 401T264 346Q283 335 296 322T318 290T329 245T333 184Q333 -10 189 -10Q116 -10 79 36T41 170V190H135Q134 183 134 177V170Q134 78 187 78Q216 78 228 103T240 188Q240 235 233 257T205 291Q194 298 181 300T141 302V391Z"  />
<glyph unicode="4" horiz-adv-x="380" d="M197 501L104 251H197V501ZM23 163V252L193 667H289V251H351V163H289V0H197V163H23Z"  />
<glyph unicode="5" horiz-adv-x="380" d="M312 579H141L136 415Q156 440 177 451T226 462Q250 462 270 453T304 425Q320 404 326 376T332 297V176Q332 123 324 92T296 37Q257 -10 187 -10Q139 -10 105 13T54 79Q46 98 44 123T41 188H136Q136 155 137 140T143 113Q154 78 188 78Q217 78 228 103Q233 114 235 128T237 174V281Q237 300 237 311T236 329T234 341T230 351Q222 373 193 373Q172 373 159 361T136 319L48 325L59 667H312V579Z"  />
<glyph unicode="6" horiz-adv-x="380" d="M139 166Q139 118 151 98T192 78Q220 78 232 98T244 167V256Q244 294 235 310T201 326Q158 326 139 277V166ZM237 489Q238 496 238 502V511Q238 552 227 570T189 589Q162 589 151 569T139 499V363Q177 411 230 411Q339 411 339 272V180Q339 127 331 97T304 42Q284 17 255 4T192 -10Q158 -10 129 3T79 42Q59 67 52 97T44 180V483Q44 513 46 535T52 574T64 604T84 631Q124 677 189 677Q257 677 295 632T333 506V499Q333 494 332 489H237Z"  />
<glyph unicode="7" horiz-adv-x="380" d="M324 667V600L200 0H104L227 579H42V667H324Z"  />
<glyph unicode="8" horiz-adv-x="380" d="M190 301Q161 301 150 277T139 190Q139 127 150 103T190 78Q219 78 230 102T241 188Q241 252 230 276T190 301ZM190 589Q164 589 153 567T141 494Q141 444 152 422T190 399Q216 399 227 421T239 493Q239 544 228 566T190 589ZM270 354Q289 343 302 329T323 296T334 252T338 193Q338 -10 190 -10Q42 -10 42 193Q42 227 45 252T57 296T78 329T110 354Q77 382 64 415T51 502Q51 550 60 581T91 636Q129 677 190 677Q251 677 289 636Q310 613 319 582T329 502Q329 448 316 415T270 354Z"  />
<glyph unicode="9" horiz-adv-x="380" d="M241 501Q241 549 229 569T188 589Q160 589 148 569T136 500V411Q136 373 145 357T179 341Q222 341 241 390V501ZM143 178Q142 171 142 164V156Q142 115 153 97T191 78Q218 78 229 98T241 168V304Q203 256 150 256Q41 256 41 395V487Q41 514 43 534T49 570T59 599T76 625Q96 650 125 663T188 677Q222 677 251 664T301 625Q321 600 328 570T336 487V184Q336 154 334 132T328 93T316 63T296 36Q256 -10 191 -10Q123 -10 85 35T47 161V168Q47 173 48 178H143Z"  />
<glyph unicode=":" horiz-adv-x="180" d="M139 394H42V497H139V394ZM139 0H42V103H139V0Z"  />
<glyph unicode=";" horiz-adv-x="180" d="M139 0L87 -116H42L77 0H42V103H139V0ZM139 394H42V497H139V394Z"  />
<glyph unicode="&lt;" horiz-adv-x="500" d="M466 491L137 335L466 180V83L33 294V377L466 588V491Z"  />
<glyph unicode="=" horiz-adv-x="380" d="M338 224H43V302H338V224ZM338 378H43V456H338V378Z"  />
<glyph unicode="&gt;" horiz-adv-x="500" d="M34 180L363 336L34 491V588L467 377V294L34 83V180Z"  />
<glyph unicode="?" horiz-adv-x="346" d="M123 197V218Q123 260 126 291T136 352T158 411T193 480Q207 503 211 516T215 545Q215 567 205 579T178 592Q158 592 144 576T114 521L33 553Q53 616 87 645T178 674Q237 674 271 641T305 550Q305 533 303 519T294 488T278 452T251 404Q237 380 228 360T214 320T206 277T203 227V215Q203 208 204 197H123ZM213 0H116V103H213V0Z"  />
<glyph unicode="@" horiz-adv-x="449" d="M269 272Q269 251 276 243T300 234Q317 234 323 242T330 272V425Q330 447 324 455T300 463Q283 463 276 455T269 425V272ZM349 177L337 205Q320 184 305 176T266 167Q189 167 189 251V439Q189 482 211 506T272 530Q289 530 301 525T330 504V525Q330 563 303 585T230 607Q208 607 189 600T155 581Q138 567 133 549T127 495V184Q127 153 131 135T146 102Q176 60 235 60Q287 60 330 95L378 49Q325 -10 235 -10Q196 -10 160 1T101 31Q76 52 62 87T47 162V511Q47 592 94 634T229 677Q315 677 362 635T410 516V177H349Z"  />
<glyph unicode="A" horiz-adv-x="405" d="M201 506L163 240H241L201 506ZM149 147L126 0H27L136 667H266L382 0H279L256 147H149Z"  />
<glyph unicode="B" horiz-adv-x="401" d="M182 93Q224 93 243 115T262 190Q262 257 230 283Q220 291 207 294T170 298H145V93H182ZM166 391Q212 391 232 414T252 490Q252 574 183 574H145V391H166ZM45 667H184Q350 667 350 494Q350 441 334 406T280 345Q324 323 343 284T362 179Q362 79 313 33Q293 14 268 7T193 0H45V667Z"  />
<glyph unicode="C" horiz-adv-x="388" d="M254 446Q254 475 254 497T252 531Q249 555 235 569T198 584Q157 584 146 538Q142 521 142 439V227Q142 177 143 154T149 119Q163 83 198 83Q220 83 234 98T251 139Q253 153 253 183T254 236H355V198Q355 172 354 154T351 121T344 94T332 68Q313 31 279 11T199 -10Q164 -10 133 3T82 43Q70 58 62 73T50 107T44 154T42 220V446Q42 485 43 512T49 559T62 594T82 624Q102 650 132 663T199 677Q243 677 278 658T332 604Q339 592 343 581T350 555T354 524T355 482V446H254Z"  />
<glyph unicode="D" horiz-adv-x="397" d="M176 93Q219 93 239 120Q249 134 252 151T256 207V460Q256 498 253 515T239 547Q219 574 176 574H145V93H176ZM45 667H187Q274 667 315 621T356 478V189Q356 92 315 46T187 0H45V667Z"  />
<glyph unicode="E" horiz-adv-x="348" d="M317 574H145V392H269V299H145V93H317V0H45V667H317V574Z"  />
<glyph unicode="F" horiz-adv-x="330" d="M314 574H145V392H268V299H145V0H45V667H314V574Z"  />
<glyph unicode="G" horiz-adv-x="399" d="M355 0H306L288 53Q266 18 243 4T182 -10Q146 -10 118 5T72 47Q55 76 49 113T42 213V446Q42 485 43 512T49 559T62 594T82 624Q102 650 133 663T199 677Q256 677 296 646T349 559Q351 551 352 544T354 525T355 495V449H254Q254 471 254 484T253 506T253 519T252 530Q249 554 235 568T198 583Q157 583 146 537Q144 528 143 503T142 439V228Q142 188 144 159T150 120Q155 103 168 94T199 84Q219 84 232 96T251 129Q255 148 255 228V255H194V338H355V0Z"  />
<glyph unicode="H" horiz-adv-x="400" d="M145 301V0H45V667H145V394H256V667H356V0H256V301H145Z"  />
<glyph unicode="I" horiz-adv-x="189" d="M145 0H45V667H145V0Z"  />
<glyph unicode="J" horiz-adv-x="231" d="M186 667V210Q186 174 185 149T180 104T172 71T158 44Q129 0 58 0H10V93H34Q63 93 74 115T86 194V667H186Z"  />
<glyph unicode="K" horiz-adv-x="399" d="M145 667V400L263 667H368L253 435L383 0H276L191 310L145 218V0H45V667H145Z"  />
<glyph unicode="L" horiz-adv-x="324" d="M311 0H45V667H145V93H311V0Z"  />
<glyph unicode="M" horiz-adv-x="517" d="M380 0V461L284 0H239L138 461V0H45V667H179L262 261L338 667H473V0H380Z"  />
<glyph unicode="N" horiz-adv-x="420" d="M283 0L138 412V0H45V667H146L283 271V667H376V0H283Z"  />
<glyph unicode="O" horiz-adv-x="397" d="M142 228Q142 178 143 154T149 119Q163 83 199 83Q240 83 251 129Q255 146 255 228V439Q255 490 254 513T248 548Q234 584 199 584Q157 584 146 538Q144 529 143 503T142 439V228ZM355 217Q355 180 353 154T347 108T335 73T315 43Q295 18 265 4T199 -10Q164 -10 133 4T82 43Q70 58 62 73T50 108T44 154T42 217V450Q42 487 43 513T49 559T62 594T82 624Q102 649 133 663T199 677Q234 677 264 663T315 624Q327 609 334 594T346 560T353 514T355 450V217Z"  />
<glyph unicode="P" horiz-adv-x="386" d="M177 368Q201 368 217 372T242 388T254 420T258 471Q258 502 255 522T242 553T217 569T177 574H145V368H177ZM145 0H45V667H185Q233 667 266 657T319 624T349 563T358 471Q358 417 349 380T320 319T266 285T185 275H145V0Z"  />
<glyph unicode="Q" horiz-adv-x="397" d="M142 228Q142 178 143 154T149 119Q163 83 199 83Q240 83 251 129Q255 146 255 228V439Q255 490 254 513T248 548Q234 584 199 584Q157 584 146 538Q144 529 143 503T142 439V228ZM376 -51Q332 -50 307 -38T265 4Q247 -4 232 -7T199 -10Q164 -10 133 3T82 43Q70 58 62 73T50 108T44 154T42 217V450Q42 487 43 513T49 559T62 594T82 624Q102 649 133 663T199 677Q234 677 264 663T315 624Q327 609 334 594T346 560T353 514T355 450V217Q355 186 354 164T351 124T344 94T333 69Q341 59 350 55T376 48V-51Z"  />
<glyph unicode="R" horiz-adv-x="389" d="M177 371Q203 371 215 375T235 393Q243 406 247 427T252 473Q252 501 247 523T232 557Q224 567 212 570T177 574H145V371H177ZM145 0H45V667H185Q272 667 312 621T352 474Q352 409 337 371T285 305L362 0H256L193 278H145V0Z"  />
<glyph unicode="S" horiz-adv-x="371" d="M243 503Q238 548 226 566T185 584Q159 584 144 566T129 518Q129 501 133 487T147 456T174 422T218 379Q257 343 282 316T321 265T341 216T347 161Q347 123 336 92T303 38T253 3T189 -10Q152 -10 122 3T71 39T37 96T23 170L118 187Q122 83 189 83Q217 83 233 102T250 156Q250 193 224 228Q218 236 213 242T200 256T180 276T146 307Q114 336 93 361T58 411T38 459T32 512Q32 587 75 632T189 677Q322 677 340 517L243 503Z"  />
<glyph unicode="T" horiz-adv-x="328" d="M213 0H113V574H7V667H321V574H213V0Z"  />
<glyph unicode="U" horiz-adv-x="403" d="M358 667V217Q358 180 356 154T350 108T338 73T318 43Q298 18 268 4T202 -10Q167 -10 136 4T85 43Q73 58 65 73T53 108T47 154T45 217V667H145V228Q145 178 146 154T152 119Q166 83 202 83Q243 83 254 129Q258 146 258 228V667H358Z"  />
<glyph unicode="V" horiz-adv-x="379" d="M145 0L17 667H119L196 240L264 667H363L249 0H145Z"  />
<glyph unicode="W" horiz-adv-x="550" d="M342 0L273 404L207 0H120L20 667H120L170 268L233 667H316L382 268L433 667H530L429 0H342Z"  />
<glyph unicode="X" horiz-adv-x="394" d="M377 0H272L194 215L120 0H17L143 343L22 667H127L196 470L261 667H365L248 343L377 0Z"  />
<glyph unicode="Y" horiz-adv-x="372" d="M238 0H138V270L13 667H117L188 405L257 667H358L238 270V0Z"  />
<glyph unicode="Z" horiz-adv-x="352" d="M326 0H27V93L220 574H42V667H326V574L134 93H326V0Z"  />
<glyph unicode="[" horiz-adv-x="293" d="M230 580H158V-8H230V-95H70V667H230V580Z"  />
<glyph unicode="\" horiz-adv-x="371" d="M358 -67H287L20 667H91L358 -67Z"  />
<glyph unicode="]" horiz-adv-x="293" d="M63 -8H135V580H63V667H223V-95H63V-8Z"  />
<glyph unicode="^" horiz-adv-x="500" d="M27 368L195 669H305L473 368H383L250 603L117 368H27Z"  />
<glyph unicode="_" horiz-adv-x="500" d="M500 -67V-129H0V-67H500Z"  />
<glyph unicode="`" horiz-adv-x="500" d="M221 580L149 660H246L291 580H221Z"  />
<glyph unicode="a" horiz-adv-x="346" d="M213 253Q164 222 144 194T123 127Q123 75 154 75Q186 75 213 121V253ZM222 0Q220 9 220 15T218 27T217 39T215 56Q161 -7 111 -7Q74 -7 52 25T30 111Q30 144 38 169T66 218T122 266T213 322V354Q213 395 206 408T176 422Q155 422 146 407T134 354H42Q47 426 84 465T184 504Q215 504 239 493T278 461Q293 441 298 418T303 344V180Q303 137 303 111T304 66T307 33T312 0H222Z"  />
<glyph unicode="b" horiz-adv-x="338" d="M129 97Q152 75 174 75Q198 75 206 93Q211 102 212 112T213 148V349Q213 375 212 385T206 404Q198 422 174 422Q152 422 129 400V97ZM129 449Q154 479 175 491T222 504Q267 504 287 464Q292 454 295 444T300 421T302 391T303 348V149Q303 124 303 107T300 76T295 53T287 33Q267 -7 222 -7Q196 -7 175 5T129 48V0H39V667H129V449Z"  />
<glyph unicode="c" horiz-adv-x="326" d="M210 325V365Q210 378 208 385Q203 422 168 422Q145 422 135 406T125 353V144Q125 75 168 75Q206 75 209 126Q210 131 210 145V181H300V158Q300 136 299 121T296 93T289 70T278 49Q261 23 233 8T171 -7Q139 -7 110 7T63 44Q48 65 42 91T35 161V335Q35 379 41 405T63 453Q81 476 110 490T172 504Q216 504 249 480T294 415Q298 401 299 384T300 325H210Z"  />
<glyph unicode="d" horiz-adv-x="338" d="M209 400Q186 422 164 422Q140 422 132 404Q127 396 126 386T125 349V148Q125 122 126 112T132 93Q140 75 164 75Q186 75 209 97V400ZM299 667V0H209V48Q184 18 163 6T116 -7Q71 -7 51 33Q46 43 43 53T38 76T36 106T35 149V348Q35 373 35 390T38 421T43 444T51 464Q71 504 116 504Q142 504 163 492T209 449V667H299Z"  />
<glyph unicode="e" horiz-adv-x="340" d="M214 353Q214 389 204 405T170 422Q125 422 125 353V307H214V353ZM125 232V144Q125 75 170 75Q199 75 207 99Q210 106 211 115T212 154L213 172H304V149Q304 108 299 87T281 47Q263 21 234 7T172 -7Q140 -7 111 7T64 44Q48 65 42 92T35 162V335Q35 379 41 405T63 453Q80 476 109 490T170 504Q202 504 230 491T276 453Q291 432 297 406T304 335V232H125Z"  />
<glyph unicode="f" horiz-adv-x="224" d="M211 415H153V0H63V415H7V497H63V554Q63 590 67 608T85 640Q116 674 171 674Q197 674 221 667V590Q212 592 206 592H196Q172 592 163 578T153 529V497H211V415Z"  />
<glyph unicode="g" horiz-adv-x="339" d="M144 -13Q106 -31 106 -59Q106 -81 125 -94T175 -107Q213 -107 235 -93T258 -56Q258 -38 247 -30T208 -18Q203 -17 191 -16T144 -13ZM117 266Q117 233 126 218T158 203Q180 203 189 218T199 266V363Q199 397 190 412T158 427Q136 427 127 412T117 363V266ZM333 425Q299 425 279 405Q280 399 280 395T281 385V269Q281 233 276 211T256 170Q239 149 215 138T162 126H151Q146 126 137 127Q116 110 116 93Q116 81 128 76T171 68Q201 66 221 64T256 59T281 52T300 40Q338 11 338 -46Q338 -109 293 -143T162 -177Q90 -177 51 -154T11 -89Q11 -63 28 -45T92 -4Q62 9 49 23T35 60Q35 99 92 141Q60 164 48 191T35 269V361Q35 504 161 504Q196 504 220 491T264 448Q290 498 333 501V425Z"  />
<glyph unicode="h" horiz-adv-x="337" d="M129 443Q160 477 182 490T232 504Q265 504 282 481Q292 467 295 449T298 387V0H208V366Q208 388 208 395T205 407Q202 422 186 422Q159 422 129 380V0H39V667H129V443Z"  />
<glyph unicode="i" horiz-adv-x="167" d="M129 577H39V667H129V577ZM129 0H39V497H129V0Z"  />
<glyph unicode="j" horiz-adv-x="175" d="M136 577H46V667H136V577ZM136 497V-13Q136 -39 136 -57T133 -87T128 -109T118 -128Q107 -148 83 -159T30 -170Q18 -170 8 -169T-17 -164V-77Q-9 -79 -5 -79T4 -80Q27 -80 36 -67T46 -24V497H136Z"  />
<glyph unicode="k" horiz-adv-x="338" d="M129 306L221 497H312L222 331L320 0H232L169 231L129 159V0H39V667H129V306Z"  />
<glyph unicode="l" horiz-adv-x="167" d="M129 0H39V667H129V0Z"  />
<glyph unicode="m" horiz-adv-x="506" d="M129 443Q160 477 182 490T232 504Q287 504 296 443Q328 478 351 491T402 504Q435 504 452 481Q462 467 465 449T468 387V0H378V366Q378 388 378 395T375 407Q372 422 355 422Q328 422 298 380V0H208V366Q208 388 208 395T205 407Q202 422 186 422Q159 422 129 380V0H39V497H129V443Z"  />
<glyph unicode="n" horiz-adv-x="337" d="M129 443Q160 477 182 490T232 504Q265 504 282 481Q292 467 295 449T298 387V0H208V366Q208 388 208 395T205 407Q202 422 186 422Q159 422 129 380V0H39V497H129V443Z"  />
<glyph unicode="o" horiz-adv-x="336" d="M125 144Q125 108 135 92T168 75Q191 75 201 91T211 144V353Q211 389 201 405T168 422Q145 422 135 406T125 353V144ZM301 162Q301 118 295 92T273 44Q256 21 228 7T168 -7Q136 -7 108 7T63 44Q48 65 42 91T35 162V335Q35 379 41 405T63 453Q80 476 108 490T168 504Q200 504 228 490T273 453Q288 432 294 406T301 335V162Z"  />
<glyph unicode="p" horiz-adv-x="338" d="M129 97Q152 75 174 75Q198 75 206 93Q211 101 212 111T213 148V349Q213 375 212 385T206 404Q198 422 174 422Q152 422 129 400V97ZM129 497V449Q154 479 175 491T222 504Q267 504 287 464Q292 454 295 444T300 421T302 391T303 348V149Q303 124 303 107T300 76T295 53T287 33Q267 -7 222 -7Q196 -7 175 5T129 48V-170H39V497H129Z"  />
<glyph unicode="q" horiz-adv-x="338" d="M209 400Q186 422 164 422Q140 422 132 404Q127 395 126 385T125 349V148Q125 122 126 112T132 93Q140 75 164 75Q186 75 209 97V400ZM299 -170H209V48Q184 18 163 6T116 -7Q71 -7 51 33Q46 43 43 53T38 76T36 106T35 149V348Q35 373 35 390T38 421T43 444T51 464Q71 504 116 504Q142 504 163 492T209 449V497H299V-170Z"  />
<glyph unicode="r" horiz-adv-x="236" d="M129 497V426Q152 467 177 484T237 504V405Q227 408 221 409T206 410Q170 410 150 385Q138 371 134 353T129 301V0H39V497H129Z"  />
<glyph unicode="s" horiz-adv-x="313" d="M206 360Q199 395 188 408T156 422Q137 422 126 410T114 378Q114 367 117 359T127 340T147 319T180 293Q216 266 238 246T273 206T291 168T296 124Q296 64 260 29T160 -7Q37 -7 15 136L100 156Q109 111 123 93T162 75Q182 75 194 87T206 122Q206 133 204 142T194 160T175 180T144 205Q108 232 85 253T49 293T30 332T24 375Q24 433 61 468T159 504Q273 504 292 380L206 360Z"  />
<glyph unicode="t" horiz-adv-x="244" d="M235 415H160V168Q160 117 169 100T208 83Q219 83 235 87V2Q215 -3 201 -5T171 -7Q118 -7 92 30Q85 39 81 48T75 68T71 94T70 133V415H15V497H70V633H160V497H235V415Z"  />
<glyph unicode="u" horiz-adv-x="337" d="M298 0H208V54Q192 37 179 25T154 6T130 -4T105 -7Q72 -7 55 16Q45 30 42 48T39 110V497H129V131Q129 109 129 102T132 90Q135 75 151 75Q178 75 208 117V497H298V0Z"  />
<glyph unicode="v" horiz-adv-x="314" d="M119 0L13 497H105L160 189L211 497H300L204 0H119Z"  />
<glyph unicode="w" horiz-adv-x="469" d="M288 0L236 284L187 0H108L17 497H102L150 207L200 497H271L325 214L371 497H453L368 0H288Z"  />
<glyph unicode="x" horiz-adv-x="323" d="M308 0H216L159 157L105 0H15L112 262L15 497H110L160 361L208 497H299L208 262L308 0Z"  />
<glyph unicode="y" horiz-adv-x="320" d="M303 497L202 -13Q195 -48 190 -69T181 -104T171 -125T158 -142Q127 -177 55 -177Q45 -177 39 -177T23 -174V-86Q28 -87 33 -87H41Q84 -87 103 -54Q107 -46 110 -37T118 -6L17 497H107L161 177L214 497H303Z"  />
<glyph unicode="z" horiz-adv-x="309" d="M278 0H27V77L179 415H40V497H278V415L130 82H278V0Z"  />
<glyph unicode="{" horiz-adv-x="313" d="M184 401Q184 353 172 328T129 286Q160 268 172 242T184 169V81Q184 54 188 36T203 8T232 -6T280 -11V-94Q239 -94 214 -93T173 -89T147 -79T127 -62Q110 -44 102 -17T94 53V156Q94 199 82 220T37 250V326Q68 334 81 355T94 416V531Q94 569 102 594T129 637Q139 647 149 653T175 662T216 666T280 667V579Q251 579 233 575T204 560T189 533T184 490V401Z"  />
<glyph unicode="|" horiz-adv-x="500" d="M299 667V-167H201V667H299Z"  />
<glyph unicode="}" horiz-adv-x="313" d="M129 169Q129 216 141 242T184 286Q153 303 141 328T129 401V490Q129 516 125 533T110 560T81 574T34 579V667Q73 667 97 666T137 662T163 653T184 637Q202 620 210 595T219 531V416Q219 376 232 355T277 326V250Q245 241 232 220T219 156V53Q219 10 211 -17T186 -62Q176 -73 166 -79T141 -88T100 -93T34 -94V-11Q62 -11 80 -7T110 8T125 36T129 81V169Z"  />
<glyph unicode="~" horiz-adv-x="667" d="M94 613Q147 732 233 732Q253 732 278 724T348 694Q369 684 382 678T405 669T422 664T437 663Q463 663 483 679T524 735L574 694Q548 633 512 605T426 576Q416 576 408 577T387 583T356 596T309 619Q281 632 263 638T229 644Q205 644 186 628T144 573L94 613Z"  />
<glyph unicode="&#xA0;" horiz-adv-x="177" />
<glyph unicode="&#xA1;" horiz-adv-x="223" d="M63 497H160V394H63V497ZM143 300L163 -170H60L80 300H143Z"  />
<glyph unicode="&#xA2;" horiz-adv-x="380" d="M218 700V593Q241 588 256 580T286 558Q307 537 314 511T322 435V416H232V432Q232 456 232 466T229 486Q226 498 215 505T190 513Q167 513 157 497T147 444V235Q147 167 190 167Q204 167 215 175T229 197Q231 207 231 218T232 255V272H322V249Q322 220 320 199T311 162T295 134T270 110Q258 101 247 96T218 88V-33H165V88Q108 101 83 139T57 253V426Q57 485 70 518T117 572Q129 580 140 584T165 592V700H218Z"  />
<glyph unicode="&#xA3;" horiz-adv-x="380" d="M285 292H199Q206 266 208 248T211 210Q211 183 205 163T185 117Q204 109 214 105T231 98T240 96T247 95Q264 95 273 117T284 177L368 173Q368 88 339 41T256 -7Q238 -7 217 0T161 25Q144 33 137 35T122 38Q93 38 60 -10L2 52Q27 90 50 108T105 129Q115 150 119 167T123 206Q123 226 120 243T108 292H23V353H88Q75 389 68 412T56 452T51 482T49 512Q49 588 90 632T200 677Q272 677 310 629T347 489L254 486Q253 539 241 562T200 585Q175 585 161 566T146 514Q146 501 147 490T151 464T160 427T176 371L181 353H285V292Z"  />
<glyph unicode="&#xA4;" horiz-adv-x="416" d="M207 409Q176 409 154 387T131 334Q131 302 153 280T207 257Q238 257 261 279T284 332Q284 364 262 386T207 409ZM371 228L314 170L277 207Q257 197 243 194T208 190Q188 190 173 194T137 208L98 169L43 224L82 263Q72 281 68 297T64 333Q64 352 68 368T82 402L44 440L102 497L139 460Q174 477 208 477Q227 477 243 473T278 459L318 498L372 444L333 404Q343 386 347 370T351 334Q351 314 348 299T334 265L371 228Z"  />
<glyph unicode="&#xA5;" horiz-adv-x="380" d="M240 0H145V279H54V340H126L26 667H125L193 405L258 667H354L258 340H330V279H240V0Z"  />
<glyph unicode="&#xA6;" horiz-adv-x="500" d="M299 153V-167H201V153H299ZM299 667V328H201V667H299Z"  />
<glyph unicode="&#xA7;" horiz-adv-x="389" d="M170 405Q130 388 130 362Q130 352 134 345T150 323L225 232Q243 240 251 251T259 281Q259 290 254 300T235 327L170 405ZM231 522Q231 548 231 557T227 573Q219 595 195 595Q181 595 173 587T164 567Q164 559 169 551T188 527L315 373Q349 330 349 282Q349 204 274 172L284 159Q296 144 303 122T311 79Q311 28 278 -2T189 -33Q128 -33 94 1T59 95V104Q59 108 61 115H152Q151 109 151 105T150 97Q150 74 160 62T189 49Q203 49 212 58T221 81Q221 89 218 96T203 116L95 246Q63 284 52 308T40 359Q40 395 60 420T124 463L114 475Q74 522 74 569Q74 617 108 647T197 677Q254 677 288 643T322 552V541Q322 538 321 522H231Z"  />
<glyph unicode="&#xA8;" horiz-adv-x="500" d="M364 578H277V667H364V578ZM224 578H137V667H224V578Z"  />
<glyph unicode="&#xA9;" horiz-adv-x="775" d="M413 395Q414 399 414 402V406Q414 429 413 441T410 458Q403 476 384 476Q362 476 356 451Q355 446 355 438T354 394V269Q354 250 354 239T355 222T356 213T358 207Q366 188 384 188Q402 188 408 203T414 266V270Q414 274 413 278H479Q480 270 480 262V252Q480 221 477 206T466 174Q455 151 433 139T384 126Q339 126 312 158Q305 167 301 176T293 197T289 225T288 265V398Q288 422 289 438T292 466T299 487T312 506Q339 538 385 538Q411 538 432 526T466 493Q474 478 477 464T480 420V410Q480 403 479 395H413ZM392 627Q330 627 277 605T184 542T122 449T99 333Q99 273 122 220T184 126T275 63T388 40Q448 40 500 63T592 125T653 218T676 333Q676 393 654 446T592 540T502 603T392 627ZM392 679Q462 679 523 652T631 577T705 467T732 333Q732 262 705 199T632 89T522 15T388 -12Q317 -12 254 15T144 89T70 199T43 333Q43 405 70 468T144 578T255 652T392 679Z"  />
<glyph unicode="&#xAA;" horiz-adv-x="232" d="M136 413Q110 397 99 382T88 345Q88 318 103 318Q121 318 136 343V413ZM142 267Q140 278 140 282T138 295Q106 263 77 263Q51 263 37 282T22 336Q22 355 27 371T45 401T80 429T136 462V479Q136 502 132 509T117 516Q106 516 101 508T95 476H30Q36 571 122 571Q163 571 184 545Q194 533 197 519T200 473V334Q200 318 201 308T203 288T207 267H142Z"  />
<glyph unicode="&#xAB;" horiz-adv-x="308" d="M40 182V325L130 400V287L99 253L130 219V107L40 182ZM178 182V325L268 407V287L237 253L268 219V100L178 182Z"  />
<glyph unicode="&#xAC;" horiz-adv-x="500" d="M371 195H33V281H466V0H371V195Z"  />
<glyph unicode="&#xAD;" horiz-adv-x="140" d="M140 208H0V298H140V208Z"  />
<glyph unicode="&#xAE;" horiz-adv-x="775" d="M391 627Q329 627 276 605T184 542T122 449T99 333Q99 273 122 220T184 126T275 63T388 40Q448 40 500 63T592 125T653 218T676 333Q676 393 654 446T592 540T501 603T391 627ZM392 679Q462 679 523 652T631 577T705 467T732 333Q732 262 705 199T632 89T522 15T388 -12Q317 -12 254 15T144 89T70 199T43 333Q43 405 70 468T144 578T255 652T392 679ZM378 363Q401 363 409 375T418 419Q418 451 410 463T378 475H362V363H378ZM362 137H296V537H382Q435 537 459 509T484 420Q484 382 475 359T445 319L491 137H421L384 301H362V137Z"  />
<glyph unicode="&#xAF;" horiz-adv-x="500" d="M153 653H346V586H153V653Z"  />
<glyph unicode="&#xB0;" horiz-adv-x="407" d="M203 606Q172 606 150 584T127 530Q127 498 149 476T203 453Q234 453 257 475T280 528Q280 560 258 583T203 606ZM204 674Q234 674 260 663T305 632T336 586T347 528Q347 499 336 473T305 428T259 397T204 386Q174 386 148 397T102 427T71 473T60 529Q60 559 71 585T101 631T147 662T204 674Z"  />
<glyph unicode="&#xB1;" horiz-adv-x="380" d="M338 296H231V191H150V296H43V374H150V479H231V374H338V296ZM338 59H43V137H338V59Z"  />
<glyph unicode="&#xB2;" horiz-adv-x="260" d="M224 266H33V324Q70 375 95 412T135 479T156 531T162 575Q162 614 135 614Q102 614 102 557V543H37Q36 548 36 553V560Q36 615 62 644T136 673Q180 673 205 647T230 573Q230 550 224 527T204 475T166 410T107 325H224V266Z"  />
<glyph unicode="&#xB3;" horiz-adv-x="260" d="M98 504Q117 505 128 507T146 516T154 532T156 561Q156 590 150 602T130 614Q116 614 110 604T104 566V561Q104 558 105 553H40V565Q40 616 64 644T132 673Q174 673 196 645T219 562Q219 527 211 507T185 475Q207 462 216 441T225 379Q225 261 131 261Q84 261 60 289T35 371V386H101Q100 381 100 377V371Q100 320 130 320Q147 320 153 333T160 381Q160 401 158 413T149 433T130 442T98 445V504Z"  />
<glyph unicode="&#xB4;" horiz-adv-x="500" d="M248 660H344L272 580H202L248 660Z"  />
<glyph unicode="&#xB5;" horiz-adv-x="337" d="M298 497V0H208V40Q200 13 191 3T164 -7Q151 -7 143 -1T129 23V-170H39V497H129V127Q129 91 137 77T166 62Q196 62 208 102V497H298Z"  />
<glyph unicode="&#xB6;" horiz-adv-x="418" d="M189 320Q157 321 130 335T83 372T52 426T40 492Q40 530 52 562T87 617T141 654T209 667H381V637H341V-100H293V637H238V-100H189V320Z"  />
<glyph unicode="&#xB7;" horiz-adv-x="180" d="M139 202H42V305H139V202Z"  />
<glyph unicode="&#xB8;" horiz-adv-x="500" d="M290 -115L268 -170H221L238 -115H211V-47H290V-115Z"  />
<glyph unicode="&#xB9;" horiz-adv-x="260" d="M173 267H106V576H54V619Q73 623 92 636T128 667H173V267Z"  />
<glyph unicode="&#xBA;" horiz-adv-x="226" d="M91 355Q91 318 114 318Q136 318 136 355V479Q136 516 114 516Q91 516 91 479V355ZM200 366Q200 340 196 324T182 294Q171 280 153 272T114 263Q94 263 75 271T45 294Q35 307 31 323T27 366V468Q27 494 31 510T45 540Q56 554 75 562T114 571Q134 571 152 563T182 540Q192 527 196 511T200 468V366Z"  />
<glyph unicode="&#xBB;" horiz-adv-x="308" d="M268 325V182L178 107V219L209 253L178 287V400L268 325ZM130 325V182L40 100V219L71 253L40 287V407L130 325Z"  />
<glyph unicode="&#xBC;" horiz-adv-x="606" d="M480 296L422 153H480V296ZM368 96V153L477 400H542V155H581V96H542V0H478V96H368ZM389 700H440L213 -33H167L389 700ZM173 267H106V576H54V619Q73 623 92 636T128 667H173V267Z"  />
<glyph unicode="&#xBD;" horiz-adv-x="606" d="M570 0H379V58Q416 109 441 146T481 213T502 264T508 308Q508 347 481 347Q448 347 448 290V276H383Q382 281 382 286V293Q382 348 408 377T482 406Q526 406 551 380T576 306Q576 284 570 261T550 209T512 144T453 59H570V0ZM389 700H440L213 -33H167L389 700ZM173 267H106V576H54V619Q73 623 92 636T128 667H173V267Z"  />
<glyph unicode="&#xBE;" horiz-adv-x="606" d="M480 296L422 153H480V296ZM389 700H440L213 -33H167L389 700ZM98 504Q117 505 128 507T146 516T154 532T156 561Q156 590 150 602T130 614Q116 614 110 604T104 566V561Q104 558 105 553H40V565Q40 616 64 644T132 673Q174 673 196 645T219 562Q219 527 211 507T185 475Q207 462 216 441T225 379Q225 261 131 261Q84 261 60 289T35 371V386H101Q100 381 100 377V371Q100 320 130 320Q147 320 153 333T160 381Q160 401 158 413T149 433T130 442T98 445V504ZM368 96V153L477 400H542V155H581V96H542V0H478V96H368Z"  />
<glyph unicode="&#xBF;" horiz-adv-x="346" d="M132 497H229V394H132V497ZM222 300Q222 248 219 212T209 146T188 86T152 17Q138 -6 134 -19T130 -48Q130 -70 140 -82T167 -95Q187 -95 202 -79T231 -24L312 -56Q292 -119 258 -148T167 -177Q108 -177 74 -144T40 -53Q40 -36 42 -22T50 9T66 45T94 93Q108 117 117 137T131 177T139 220T142 270V300H222Z"  />
<glyph unicode="&#xC0;" horiz-adv-x="405" d="M174 720L101 800H198L244 720H174ZM201 506L163 240H241L201 506ZM149 147L126 0H27L136 667H266L382 0H279L256 147H149Z"  />
<glyph unicode="&#xC1;" horiz-adv-x="405" d="M209 800H306L233 720H163L209 800ZM201 506L163 240H241L201 506ZM149 147L126 0H27L136 667H266L382 0H279L256 147H149Z"  />
<glyph unicode="&#xC2;" horiz-adv-x="405" d="M253 800L311 720H231L203 751L174 720H94L153 800H253ZM201 506L163 240H241L201 506ZM149 147L126 0H27L136 667H266L382 0H279L256 147H149Z"  />
<glyph unicode="&#xC3;" horiz-adv-x="405" d="M106 787Q121 795 133 798T161 802Q173 802 182 801T204 794Q224 786 232 784T252 782Q263 782 272 785T299 799V730Q281 719 272 716T252 713Q241 713 233 715T204 725Q191 730 182 731T161 733Q145 733 133 730T106 718V787ZM201 506L163 240H241L201 506ZM149 147L126 0H27L136 667H266L382 0H279L256 147H149Z"  />
<glyph unicode="&#xC4;" horiz-adv-x="405" d="M314 720H227V809H314V720ZM175 720H88V809H175V720ZM201 506L163 240H241L201 506ZM149 147L126 0H27L136 667H266L382 0H279L256 147H149Z"  />
<glyph unicode="&#xC5;" horiz-adv-x="405" d="M203 811Q188 811 178 801T167 777Q167 763 177 753T203 742Q218 742 228 752T239 777Q239 791 229 801T203 811ZM204 846Q233 846 254 826T276 777Q276 748 255 728T203 707Q173 707 152 727T130 777Q130 806 151 826T204 846ZM201 506L163 240H241L201 506ZM149 147L126 0H27L136 667H266L382 0H279L256 147H149Z"  />
<glyph unicode="&#xC6;" horiz-adv-x="576" d="M272 506L193 240H272V506ZM165 147L121 0H17L224 667H545V574H372V392H496V299H372V93H545V0H272V147H165Z"  />
<glyph unicode="&#xC7;" horiz-adv-x="388" d="M238 -115L216 -170H169L186 -115H159V-47H238V-115ZM254 446Q254 475 254 497T252 531Q249 555 235 569T198 584Q157 584 146 538Q142 521 142 439V227Q142 177 143 154T149 119Q163 83 198 83Q220 83 234 98T251 139Q253 153 253 183T254 236H355V198Q355 172 354 154T351 121T344 94T332 68Q313 31 279 11T199 -10Q164 -10 133 3T82 43Q70 58 62 73T50 107T44 154T42 220V446Q42 485 43 512T49 559T62 594T82 624Q102 650 132 663T199 677Q243 677 278 658T332 604Q339 592 343 581T350 555T354 524T355 482V446H254Z"  />
<glyph unicode="&#xC8;" horiz-adv-x="348" d="M162 720L90 800H187L232 720H162ZM317 574H145V392H269V299H145V93H317V0H45V667H317V574Z"  />
<glyph unicode="&#xC9;" horiz-adv-x="348" d="M179 800H275L203 720H133L179 800ZM317 574H145V392H269V299H145V93H317V0H45V667H317V574Z"  />
<glyph unicode="&#xCA;" horiz-adv-x="348" d="M231 800L290 720H209L181 751L153 720H72L131 800H231ZM317 574H145V392H269V299H145V93H317V0H45V667H317V574Z"  />
<glyph unicode="&#xCB;" horiz-adv-x="348" d="M288 720H201V809H288V720ZM148 720H61V809H148V720ZM317 574H145V392H269V299H145V93H317V0H45V667H317V574Z"  />
<glyph unicode="&#xCC;" horiz-adv-x="189" d="M71 720L-1 800H96L141 720H71ZM144 0H44V667H144V0Z"  />
<glyph unicode="&#xCD;" horiz-adv-x="189" d="M107 800H204L132 720H62L107 800ZM145 0H45V667H145V0Z"  />
<glyph unicode="&#xCE;" horiz-adv-x="189" d="M145 800L203 720H123L95 751L66 720H-14L44 800H145ZM145 0H45V667H145V0Z"  />
<glyph unicode="&#xCF;" horiz-adv-x="189" d="M201 720H114V809H201V720ZM75 720H-12V809H75V720ZM145 0H45V667H145V0Z"  />
<glyph unicode="&#xD0;" horiz-adv-x="397" d="M175 93Q218 93 238 120Q248 134 251 151T255 207V460Q255 498 252 515T238 547Q218 574 175 574H144V379H201V299H144V93H175ZM44 299H11V379H44V667H186Q273 667 314 621T355 478V189Q355 92 314 46T186 0H44V299Z"  />
<glyph unicode="&#xD1;" horiz-adv-x="420" d="M114 787Q129 795 141 798T169 802Q181 802 190 801T212 794Q232 786 240 784T260 782Q271 782 280 785T307 799V730Q289 719 280 716T260 713Q249 713 241 715T212 725Q199 730 190 731T169 733Q153 733 141 730T114 718V787ZM283 0L138 412V0H45V667H146L283 271V667H376V0H283Z"  />
<glyph unicode="&#xD2;" horiz-adv-x="397" d="M182 720L110 800H207L252 720H182ZM142 228Q142 178 143 154T149 119Q163 83 199 83Q240 83 251 129Q255 146 255 228V439Q255 490 254 513T248 548Q234 584 199 584Q157 584 146 538Q144 529 143 503T142 439V228ZM355 217Q355 180 353 154T347 108T335 73T315 43Q295 18 265 4T199 -10Q164 -10 133 4T82 43Q70 58 62 73T50 108T44 154T42 217V450Q42 487 43 513T49 559T62 594T82 624Q102 649 133 663T199 677Q234 677 264 663T315 624Q327 609 334 594T346 560T353 514T355 450V217Z"  />
<glyph unicode="&#xD3;" horiz-adv-x="397" d="M209 800H306L234 720H163L209 800ZM142 228Q142 178 143 154T149 119Q163 83 199 83Q240 83 251 129Q255 146 255 228V439Q255 490 254 513T248 548Q234 584 199 584Q157 584 146 538Q144 529 143 503T142 439V228ZM355 217Q355 180 353 154T347 108T335 73T315 43Q295 18 265 4T199 -10Q164 -10 133 4T82 43Q70 58 62 73T50 108T44 154T42 217V450Q42 487 43 513T49 559T62 594T82 624Q102 649 133 663T199 677Q234 677 264 663T315 624Q327 609 334 594T346 560T353 514T355 450V217Z"  />
<glyph unicode="&#xD4;" horiz-adv-x="397" d="M249 800L307 720H227L199 751L170 720H90L148 800H249ZM142 228Q142 178 143 154T149 119Q163 83 199 83Q240 83 251 129Q255 146 255 228V439Q255 490 254 513T248 548Q234 584 199 584Q157 584 146 538Q144 529 143 503T142 439V228ZM355 217Q355 180 353 154T347 108T335 73T315 43Q295 18 265 4T199 -10Q164 -10 133 4T82 43Q70 58 62 73T50 108T44 154T42 217V450Q42 487 43 513T49 559T62 594T82 624Q102 649 133 663T199 677Q234 677 264 663T315 624Q327 609 334 594T346 560T353 514T355 450V217Z"  />
<glyph unicode="&#xD5;" horiz-adv-x="397" d="M104 787Q119 795 131 798T159 802Q171 802 180 801T202 794Q222 786 230 784T250 782Q261 782 270 785T297 799V730Q279 719 270 716T250 713Q239 713 231 715T202 725Q189 730 180 731T159 733Q143 733 131 730T104 718V787ZM142 228Q142 178 143 154T149 119Q163 83 199 83Q240 83 251 129Q255 146 255 228V439Q255 490 254 513T248 548Q234 584 199 584Q157 584 146 538Q144 529 143 503T142 439V228ZM355 217Q355 180 353 154T347 108T335 73T315 43Q295 18 265 4T199 -10Q164 -10 133 4T82 43Q70 58 62 73T50 108T44 154T42 217V450Q42 487 43 513T49 559T62 594T82 624Q102 649 133 663T199 677Q234 677 264 663T315 624Q327 609 334 594T346 560T353 514T355 450V217Z"  />
<glyph unicode="&#xD6;" horiz-adv-x="397" d="M312 720H225V809H312V720ZM172 720H85V809H172V720ZM142 228Q142 178 143 154T149 119Q163 83 199 83Q240 83 251 129Q255 146 255 228V439Q255 490 254 513T248 548Q234 584 199 584Q157 584 146 538Q144 529 143 503T142 439V228ZM355 217Q355 180 353 154T347 108T335 73T315 43Q295 18 265 4T199 -10Q164 -10 133 4T82 43Q70 58 62 73T50 108T44 154T42 217V450Q42 487 43 513T49 559T62 594T82 624Q102 649 133 663T199 677Q234 677 264 663T315 624Q327 609 334 594T346 560T353 514T355 450V217Z"  />
<glyph unicode="&#xD7;" horiz-adv-x="380" d="M321 417L246 341L320 267L263 210L189 284L113 208L58 263L134 339L59 413L117 470L191 396L267 472L321 417Z"  />
<glyph unicode="&#xD8;" horiz-adv-x="397" d="M145 140Q148 113 162 99T199 84Q241 84 252 130Q256 146 256 228V427L145 140ZM249 547Q234 583 199 583Q157 583 146 537Q145 532 145 528T144 513T143 486T142 439V272L249 547ZM353 678L326 610Q335 596 341 582T350 549T354 508T356 450V217Q356 180 354 154T348 108T336 73T316 43Q296 18 266 4T200 -10Q144 -10 100 24L86 -12H33L64 70Q58 82 54 95T47 125T43 164T42 217V450Q42 487 43 513T49 559T62 594T82 624Q102 650 132 663T200 676Q249 676 289 650L300 678H353Z"  />
<glyph unicode="&#xD9;" horiz-adv-x="403" d="M183 720L111 800H207L253 720H183ZM358 667V217Q358 180 356 154T350 108T338 73T318 43Q298 18 268 4T202 -10Q167 -10 136 4T85 43Q73 58 65 73T53 108T47 154T45 217V667H145V228Q145 178 146 154T152 119Q166 83 202 83Q243 83 254 129Q258 146 258 228V667H358Z"  />
<glyph unicode="&#xDA;" horiz-adv-x="403" d="M208 800H305L232 720H162L208 800ZM358 667V217Q358 180 356 154T350 108T338 73T318 43Q298 18 268 4T202 -10Q167 -10 136 4T85 43Q73 58 65 73T53 108T47 154T45 217V667H145V228Q145 178 146 154T152 119Q166 83 202 83Q243 83 254 129Q258 146 258 228V667H358Z"  />
<glyph unicode="&#xDB;" horiz-adv-x="403" d="M252 800L310 720H230L202 751L173 720H93L151 800H252ZM358 667V217Q358 180 356 154T350 108T338 73T318 43Q298 18 268 4T202 -10Q167 -10 136 4T85 43Q73 58 65 73T53 108T47 154T45 217V667H145V228Q145 178 146 154T152 119Q166 83 202 83Q243 83 254 129Q258 146 258 228V667H358Z"  />
<glyph unicode="&#xDC;" horiz-adv-x="403" d="M315 720H228V809H315V720ZM175 720H88V809H175V720ZM358 667V217Q358 180 356 154T350 108T338 73T318 43Q298 18 268 4T202 -10Q167 -10 136 4T85 43Q73 58 65 73T53 108T47 154T45 217V667H145V228Q145 178 146 154T152 119Q166 83 202 83Q243 83 254 129Q258 146 258 228V667H358Z"  />
<glyph unicode="&#xDD;" horiz-adv-x="372" d="M194 800H291L218 720H148L194 800ZM238 0H138V270L13 667H117L188 405L257 667H358L238 270V0Z"  />
<glyph unicode="&#xDE;" horiz-adv-x="391" d="M177 255Q201 255 217 259T242 275T254 307T258 358Q258 388 255 408T242 439T217 455T177 460H145V255H177ZM145 0H45V667H145V553H185Q233 553 266 543T319 510T349 449T358 358Q358 304 349 267T320 206T266 172T185 162H145V0Z"  />
<glyph unicode="&#xDF;" horiz-adv-x="342" d="M39 0V530Q39 597 73 635T168 674Q225 674 257 642T289 552Q289 516 277 495T237 462Q256 452 269 436T291 395T302 334T306 247Q306 184 301 145T283 72Q270 38 247 19T195 0H163V82H174Q186 82 194 90T207 118T214 173T216 259Q216 302 214 331T205 377T189 403T163 415V497Q186 499 196 509T206 545Q206 592 169 592Q147 592 138 577T129 526V0H39Z"  />
<glyph unicode="&#xE0;" horiz-adv-x="346" d="M169 580L97 660H194L239 580H169ZM213 253Q164 222 144 194T123 127Q123 75 154 75Q186 75 213 121V253ZM222 0Q220 9 220 15T218 27T217 39T215 56Q161 -7 111 -7Q74 -7 52 25T30 111Q30 144 38 169T66 218T122 266T213 322V354Q213 395 206 408T176 422Q155 422 146 407T134 354H42Q47 426 84 465T184 504Q215 504 239 493T278 461Q293 441 298 418T303 344V180Q303 137 303 111T304 66T307 33T312 0H222Z"  />
<glyph unicode="&#xE1;" horiz-adv-x="346" d="M194 660H291L218 580H148L194 660ZM213 253Q164 222 144 194T123 127Q123 75 154 75Q186 75 213 121V253ZM222 0Q220 9 220 15T218 27T217 39T215 56Q161 -7 111 -7Q74 -7 52 25T30 111Q30 144 38 169T66 218T122 266T213 322V354Q213 395 206 408T176 422Q155 422 146 407T134 354H42Q47 426 84 465T184 504Q215 504 239 493T278 461Q293 441 298 418T303 344V180Q303 137 303 111T304 66T307 33T312 0H222Z"  />
<glyph unicode="&#xE2;" horiz-adv-x="346" d="M234 660L292 580H212L183 611L155 580H75L133 660H234ZM213 253Q164 222 144 194T123 127Q123 75 154 75Q186 75 213 121V253ZM222 0Q220 9 220 15T218 27T217 39T215 56Q161 -7 111 -7Q74 -7 52 25T30 111Q30 144 38 169T66 218T122 266T213 322V354Q213 395 206 408T176 422Q155 422 146 407T134 354H42Q47 426 84 465T184 504Q215 504 239 493T278 461Q293 441 298 418T303 344V180Q303 137 303 111T304 66T307 33T312 0H222Z"  />
<glyph unicode="&#xE3;" horiz-adv-x="346" d="M87 650Q102 658 114 661T142 665Q154 665 163 664T185 657Q205 649 213 647T233 645Q244 645 253 648T280 662V593Q262 582 253 579T233 576Q222 576 214 578T185 588Q172 593 163 594T142 596Q126 596 114 593T87 580V650ZM213 253Q164 222 144 194T123 127Q123 75 154 75Q186 75 213 121V253ZM222 0Q220 9 220 15T218 27T217 39T215 56Q161 -7 111 -7Q74 -7 52 25T30 111Q30 144 38 169T66 218T122 266T213 322V354Q213 395 206 408T176 422Q155 422 146 407T134 354H42Q47 426 84 465T184 504Q215 504 239 493T278 461Q293 441 298 418T303 344V180Q303 137 303 111T304 66T307 33T312 0H222Z"  />
<glyph unicode="&#xE4;" horiz-adv-x="346" d="M291 578H204V667H291V578ZM152 578H65V667H152V578ZM213 253Q164 222 144 194T123 127Q123 75 154 75Q186 75 213 121V253ZM222 0Q220 9 220 15T218 27T217 39T215 56Q161 -7 111 -7Q74 -7 52 25T30 111Q30 144 38 169T66 218T122 266T213 322V354Q213 395 206 408T176 422Q155 422 146 407T134 354H42Q47 426 84 465T184 504Q215 504 239 493T278 461Q293 441 298 418T303 344V180Q303 137 303 111T304 66T307 33T312 0H222Z"  />
<glyph unicode="&#xE5;" horiz-adv-x="346" d="M182 663Q167 663 156 653T145 629Q145 615 156 605T182 594Q197 594 207 604T218 629Q218 643 208 653T182 663ZM182 698Q212 698 233 678T255 629Q255 600 234 580T182 559Q151 559 130 579T108 629Q108 658 129 678T182 698ZM213 253Q164 222 144 194T123 127Q123 75 154 75Q186 75 213 121V253ZM222 0Q220 9 220 15T218 27T217 39T215 56Q161 -7 111 -7Q74 -7 52 25T30 111Q30 144 38 169T66 218T122 266T213 322V354Q213 395 206 408T176 422Q155 422 146 407T134 354H42Q47 426 84 465T184 504Q215 504 239 493T278 461Q293 441 298 418T303 344V180Q303 137 303 111T304 66T307 33T312 0H222Z"  />
<glyph unicode="&#xE6;" horiz-adv-x="518" d="M393 353Q393 389 382 405T348 422Q325 422 314 406T303 353V307H393V353ZM213 253Q188 237 171 223T144 194T128 163T123 128Q123 103 131 89T154 75Q186 75 213 121V253ZM303 232V144Q303 75 348 75Q362 75 372 81T386 99Q389 106 390 115T391 154L392 172H483V149Q483 108 478 87T460 47Q442 21 413 7T350 -7Q274 -7 233 57Q175 -7 121 -7Q79 -7 55 25T30 112Q30 144 38 169T66 217T122 265T213 322V354Q213 395 206 408T176 422Q155 422 146 407T134 354H42Q47 426 84 465T184 504Q231 504 265 476Q303 504 349 504Q381 504 409 491T455 453Q470 432 476 406T483 335V232H303Z"  />
<glyph unicode="&#xE7;" horiz-adv-x="326" d="M210 325V365Q210 378 208 385Q203 422 168 422Q145 422 135 406T125 353V144Q125 75 168 75Q206 75 209 126Q210 131 210 145V181H300V158Q300 136 299 121T296 93T289 70T278 49Q261 23 233 8T171 -7Q139 -7 110 7T63 44Q48 65 42 91T35 161V335Q35 379 41 405T63 453Q81 476 110 490T172 504Q216 504 249 480T294 415Q298 401 299 384T300 325H210ZM207 -115L185 -170H138L155 -115H128V-47H207V-115Z"  />
<glyph unicode="&#xE8;" horiz-adv-x="340" d="M156 580L83 660H180L226 580H156ZM214 353Q214 389 204 405T170 422Q125 422 125 353V307H214V353ZM125 232V144Q125 75 170 75Q199 75 207 99Q210 106 211 115T212 154L213 172H304V149Q304 108 299 87T281 47Q263 21 234 7T172 -7Q140 -7 111 7T64 44Q48 65 42 92T35 162V335Q35 379 41 405T63 453Q80 476 109 490T170 504Q202 504 230 491T276 453Q291 432 297 406T304 335V232H125Z"  />
<glyph unicode="&#xE9;" horiz-adv-x="340" d="M180 660H277L205 580H135L180 660ZM214 353Q214 389 204 405T170 422Q125 422 125 353V307H214V353ZM125 232V144Q125 75 170 75Q199 75 207 99Q210 106 211 115T212 154L213 172H304V149Q304 108 299 87T281 47Q263 21 234 7T172 -7Q140 -7 111 7T64 44Q48 65 42 92T35 162V335Q35 379 41 405T63 453Q80 476 109 490T170 504Q202 504 230 491T276 453Q291 432 297 406T304 335V232H125Z"  />
<glyph unicode="&#xEA;" horiz-adv-x="340" d="M220 660L278 580H198L170 611L141 580H61L120 660H220ZM214 353Q214 389 204 405T170 422Q125 422 125 353V307H214V353ZM125 232V144Q125 75 170 75Q199 75 207 99Q210 106 211 115T212 154L213 172H304V149Q304 108 299 87T281 47Q263 21 234 7T172 -7Q140 -7 111 7T64 44Q48 65 42 92T35 162V335Q35 379 41 405T63 453Q80 476 109 490T170 504Q202 504 230 491T276 453Q291 432 297 406T304 335V232H125Z"  />
<glyph unicode="&#xEB;" horiz-adv-x="340" d="M283 578H196V667H283V578ZM143 578H56V667H143V578ZM214 353Q214 389 204 405T170 422Q125 422 125 353V307H214V353ZM125 232V144Q125 75 170 75Q199 75 207 99Q210 106 211 115T212 154L213 172H304V149Q304 108 299 87T281 47Q263 21 234 7T172 -7Q140 -7 111 7T64 44Q48 65 42 92T35 162V335Q35 379 41 405T63 453Q80 476 109 490T170 504Q202 504 230 491T276 453Q291 432 297 406T304 335V232H125Z"  />
<glyph unicode="&#xEC;" horiz-adv-x="167" d="M61 580L-11 660H86L131 580H61ZM129 0H39V497H129V0Z"  />
<glyph unicode="&#xED;" horiz-adv-x="167" d="M96 660H193L121 580H51L96 660ZM129 0H39V497H129V0Z"  />
<glyph unicode="&#xEE;" horiz-adv-x="167" d="M134 660L192 580H112L84 611L55 580H-25L33 660H134ZM129 0H39V497H129V0Z"  />
<glyph unicode="&#xEF;" horiz-adv-x="167" d="M190 578H103V667H190V578ZM64 578H-23V667H64V578ZM129 0H39V497H129V0Z"  />
<glyph unicode="&#xF0;" horiz-adv-x="336" d="M125 144Q125 108 135 92T168 75Q191 75 201 91T211 144V353Q211 389 201 405T168 422Q145 422 135 406T125 353V144ZM251 694L277 664L230 625Q301 536 301 381V162Q301 118 295 92T273 44Q256 21 228 7T168 -7Q136 -7 108 7T63 44Q48 65 42 91T35 162V348Q35 373 36 391T39 422T45 446T55 465Q67 483 87 493T133 504Q156 504 172 495T209 462Q205 498 196 529T175 578L127 538L101 569L152 611L140 623Q135 628 126 636L172 681Q183 673 187 669T203 654L251 694Z"  />
<glyph unicode="&#xF1;" horiz-adv-x="337" d="M76 650Q91 658 103 661T131 665Q143 665 152 664T174 657Q194 649 202 647T222 645Q233 645 242 648T269 662V593Q251 582 242 579T222 576Q211 576 203 578T174 588Q161 593 152 594T131 596Q115 596 103 593T76 580V650ZM129 443Q160 477 182 490T232 504Q265 504 282 481Q292 467 295 449T298 387V0H208V366Q208 388 208 395T205 407Q202 422 186 422Q159 422 129 380V0H39V497H129V443Z"  />
<glyph unicode="&#xF2;" horiz-adv-x="336" d="M156 580L83 660H180L226 580H156ZM125 144Q125 108 135 92T168 75Q191 75 201 91T211 144V353Q211 389 201 405T168 422Q145 422 135 406T125 353V144ZM301 162Q301 118 295 92T273 44Q256 21 228 7T168 -7Q136 -7 108 7T63 44Q48 65 42 91T35 162V335Q35 379 41 405T63 453Q80 476 108 490T168 504Q200 504 228 490T273 453Q288 432 294 406T301 335V162Z"  />
<glyph unicode="&#xF3;" horiz-adv-x="336" d="M182 660H279L207 580H137L182 660ZM125 144Q125 108 135 92T168 75Q191 75 201 91T211 144V353Q211 389 201 405T168 422Q145 422 135 406T125 353V144ZM301 162Q301 118 295 92T273 44Q256 21 228 7T168 -7Q136 -7 108 7T63 44Q48 65 42 91T35 162V335Q35 379 41 405T63 453Q80 476 108 490T168 504Q200 504 228 490T273 453Q288 432 294 406T301 335V162Z"  />
<glyph unicode="&#xF4;" horiz-adv-x="336" d="M224 660L283 580H202L174 611L146 580H66L124 660H224ZM125 144Q125 108 135 92T168 75Q191 75 201 91T211 144V353Q211 389 201 405T168 422Q145 422 135 406T125 353V144ZM301 162Q301 118 295 92T273 44Q256 21 228 7T168 -7Q136 -7 108 7T63 44Q48 65 42 91T35 162V335Q35 379 41 405T63 453Q80 476 108 490T168 504Q200 504 228 490T273 453Q288 432 294 406T301 335V162Z"  />
<glyph unicode="&#xF5;" horiz-adv-x="336" d="M75 650Q90 658 102 661T130 665Q142 665 151 664T173 657Q193 649 201 647T221 645Q232 645 241 648T268 662V593Q250 582 241 579T221 576Q210 576 202 578T173 588Q160 593 151 594T130 596Q114 596 102 593T75 580V650ZM125 144Q125 108 135 92T168 75Q191 75 201 91T211 144V353Q211 389 201 405T168 422Q145 422 135 406T125 353V144ZM301 162Q301 118 295 92T273 44Q256 21 228 7T168 -7Q136 -7 108 7T63 44Q48 65 42 91T35 162V335Q35 379 41 405T63 453Q80 476 108 490T168 504Q200 504 228 490T273 453Q288 432 294 406T301 335V162Z"  />
<glyph unicode="&#xF6;" horiz-adv-x="336" d="M281 578H194V667H281V578ZM142 578H55V667H142V578ZM125 144Q125 108 135 92T168 75Q191 75 201 91T211 144V353Q211 389 201 405T168 422Q145 422 135 406T125 353V144ZM301 162Q301 118 295 92T273 44Q256 21 228 7T168 -7Q136 -7 108 7T63 44Q48 65 42 91T35 162V335Q35 379 41 405T63 453Q80 476 108 490T168 504Q200 504 228 490T273 453Q288 432 294 406T301 335V162Z"  />
<glyph unicode="&#xF7;" horiz-adv-x="380" d="M229 432H151V516H229V432ZM229 165H151V249H229V165ZM338 301H43V379H338V301Z"  />
<glyph unicode="&#xF8;" horiz-adv-x="336" d="M147 81Q157 75 168 75Q191 75 201 91T211 144V334L147 81ZM191 415Q180 422 169 422Q146 422 136 406T125 353V152L191 415ZM260 527L247 478Q277 456 289 424T301 335V162Q301 118 295 91T273 44Q256 21 228 7T168 -7Q149 -7 127 0L116 -42H76L91 17Q75 29 65 42T48 72T38 111T35 162V335Q35 379 41 405T63 453Q80 477 108 490T169 504Q181 504 190 503T212 496L220 527H260Z"  />
<glyph unicode="&#xF9;" horiz-adv-x="337" d="M157 580L84 660H181L227 580H157ZM298 0H208V54Q192 37 179 25T154 6T130 -4T105 -7Q72 -7 55 16Q45 30 42 48T39 110V497H129V131Q129 109 129 102T132 90Q135 75 151 75Q178 75 208 117V497H298V0Z"  />
<glyph unicode="&#xFA;" horiz-adv-x="337" d="M181 660H278L206 580H136L181 660ZM298 0H208V54Q192 37 179 25T154 6T130 -4T105 -7Q72 -7 55 16Q45 30 42 48T39 110V497H129V131Q129 109 129 102T132 90Q135 75 151 75Q178 75 208 117V497H298V0Z"  />
<glyph unicode="&#xFB;" horiz-adv-x="337" d="M219 660L277 580H197L169 611L140 580H60L118 660H219ZM298 0H208V54Q192 37 179 25T154 6T130 -4T105 -7Q72 -7 55 16Q45 30 42 48T39 110V497H129V131Q129 109 129 102T132 90Q135 75 151 75Q178 75 208 117V497H298V0Z"  />
<glyph unicode="&#xFC;" horiz-adv-x="337" d="M282 578H195V667H282V578ZM142 578H55V667H142V578ZM298 0H208V54Q192 37 179 25T154 6T130 -4T105 -7Q72 -7 55 16Q45 30 42 48T39 110V497H129V131Q129 109 129 102T132 90Q135 75 151 75Q178 75 208 117V497H298V0Z"  />
<glyph unicode="&#xFD;" horiz-adv-x="320" d="M303 497L202 -13Q195 -48 190 -69T181 -104T171 -125T158 -142Q127 -177 55 -177Q45 -177 39 -177T23 -174V-86Q28 -87 33 -87H41Q84 -87 103 -54Q107 -46 110 -37T118 -6L17 497H107L161 177L214 497H303ZM171 660H268L195 580H125L171 660Z"  />
<glyph unicode="&#xFE;" horiz-adv-x="338" d="M129 97Q152 75 174 75Q198 75 206 93Q211 101 212 111T213 148V349Q213 375 212 385T206 404Q198 422 174 422Q152 422 129 400V97ZM129 667V449Q154 479 175 491T222 504Q267 504 287 464Q292 454 295 444T300 421T302 391T303 348V149Q303 124 303 107T300 76T295 53T287 33Q267 -7 222 -7Q196 -7 175 5T129 48V-170H39V667H129Z"  />
<glyph unicode="&#xFF;" horiz-adv-x="320" d="M303 497L202 -13Q195 -48 190 -69T181 -104T171 -125T158 -142Q127 -177 55 -177Q45 -177 39 -177T23 -174V-86Q28 -87 33 -87H41Q84 -87 103 -54Q107 -46 110 -37T118 -6L17 497H107L161 177L214 497H303ZM274 578H187V667H274V578ZM134 578H47V667H134V578Z"  />
<glyph unicode="&#x100;" horiz-adv-x="405" d="M106 783H299V716H106V783ZM201 506L163 240H241L201 506ZM149 147L126 0H27L136 667H266L382 0H279L256 147H149Z"  />
<glyph unicode="&#x101;" horiz-adv-x="346" d="M85 653H278V586H85V653ZM213 253Q164 222 144 194T123 127Q123 75 154 75Q186 75 213 121V253ZM222 0Q220 9 220 15T218 27T217 39T215 56Q161 -7 111 -7Q74 -7 52 25T30 111Q30 144 38 169T66 218T122 266T213 322V354Q213 395 206 408T176 422Q155 422 146 407T134 354H42Q47 426 84 465T184 504Q215 504 239 493T278 461Q293 441 298 418T303 344V180Q303 137 303 111T304 66T307 33T312 0H222Z"  />
<glyph unicode="&#x102;" horiz-adv-x="405" d="M311 763Q275 713 203 713Q131 713 95 763L151 797Q166 787 177 783T203 779Q217 779 228 783T254 797L311 763ZM201 506L163 240H241L201 506ZM149 147L126 0H27L136 667H266L382 0H279L256 147H149Z"  />
<glyph unicode="&#x103;" horiz-adv-x="346" d="M294 628Q277 604 249 592T186 579Q114 579 77 628L134 662Q148 653 160 649T186 645Q200 645 211 649T237 662L294 628ZM213 253Q164 222 144 194T123 127Q123 75 154 75Q186 75 213 121V253ZM222 0Q220 9 220 15T218 27T217 39T215 56Q161 -7 111 -7Q74 -7 52 25T30 111Q30 144 38 169T66 218T122 266T213 322V354Q213 395 206 408T176 422Q155 422 146 407T134 354H42Q47 426 84 465T184 504Q215 504 239 493T278 461Q293 441 298 418T303 344V180Q303 137 303 111T304 66T307 33T312 0H222Z"  />
<glyph unicode="&#x104;" horiz-adv-x="405" d="M201 506L163 240H241L201 506ZM361 0Q348 -23 343 -38T337 -66Q337 -99 371 -99Q379 -99 391 -95V-144Q379 -147 371 -148T354 -149Q316 -149 294 -131T271 -82Q271 -66 278 -45T300 0H279L256 147H149L126 0H27L136 667H266L382 0H361Z"  />
<glyph unicode="&#x105;" horiz-adv-x="346" d="M213 253Q164 222 144 194T123 127Q123 75 154 75Q186 75 213 121V253ZM294 0Q283 -19 277 -36T270 -66Q270 -99 304 -99Q312 -99 324 -95V-144Q312 -147 304 -148T287 -149Q249 -149 227 -131T204 -82Q204 -66 211 -45T233 0H222Q220 9 220 15T218 27T217 39T215 56Q161 -7 111 -7Q74 -7 52 25T30 111Q30 144 38 169T66 218T122 266T213 322V354Q213 395 206 408T176 422Q155 422 146 407T134 354H42Q47 426 84 465T184 504Q215 504 239 493T278 461Q293 441 298 418T303 344V180Q303 137 303 111T304 66T307 33T312 0H294Z"  />
<glyph unicode="&#x106;" horiz-adv-x="388" d="M204 800H301L229 720H159L204 800ZM254 446Q254 475 254 497T252 531Q249 555 235 569T198 584Q157 584 146 538Q142 521 142 439V227Q142 177 143 154T149 119Q163 83 198 83Q220 83 234 98T251 139Q253 153 253 183T254 236H355V198Q355 172 354 154T351 121T344 94T332 68Q313 31 279 11T199 -10Q164 -10 133 3T82 43Q70 58 62 73T50 107T44 154T42 220V446Q42 485 43 512T49 559T62 594T82 624Q102 650 132 663T199 677Q243 677 278 658T332 604Q339 592 343 581T350 555T354 524T355 482V446H254Z"  />
<glyph unicode="&#x107;" horiz-adv-x="326" d="M210 325V365Q210 378 208 385Q203 422 168 422Q145 422 135 406T125 353V144Q125 75 168 75Q206 75 209 126Q210 131 210 145V181H300V158Q300 136 299 121T296 93T289 70T278 49Q261 23 233 8T171 -7Q139 -7 110 7T63 44Q48 65 42 91T35 161V335Q35 379 41 405T63 453Q81 476 110 490T172 504Q216 504 249 480T294 415Q298 401 299 384T300 325H210ZM177 660H274L202 580H132L177 660Z"  />
<glyph unicode="&#x108;" horiz-adv-x="388" d="M249 800L307 720H227L198 751L170 720H90L148 800H249ZM254 446Q254 475 254 497T252 531Q249 555 235 569T198 584Q157 584 146 538Q142 521 142 439V227Q142 177 143 154T149 119Q163 83 198 83Q220 83 234 98T251 139Q253 153 253 183T254 236H355V198Q355 172 354 154T351 121T344 94T332 68Q313 31 279 11T199 -10Q164 -10 133 3T82 43Q70 58 62 73T50 107T44 154T42 220V446Q42 485 43 512T49 559T62 594T82 624Q102 650 132 663T199 677Q243 677 278 658T332 604Q339 592 343 581T350 555T354 524T355 482V446H254Z"  />
<glyph unicode="&#x109;" horiz-adv-x="326" d="M210 325V365Q210 378 208 385Q203 422 168 422Q145 422 135 406T125 353V144Q125 75 168 75Q206 75 209 126Q210 131 210 145V181H300V158Q300 136 299 121T296 93T289 70T278 49Q261 23 233 8T171 -7Q139 -7 110 7T63 44Q48 65 42 91T35 161V335Q35 379 41 405T63 453Q81 476 110 490T172 504Q216 504 249 480T294 415Q298 401 299 384T300 325H210ZM215 660L273 580H193L165 611L136 580H56L114 660H215Z"  />
<glyph unicode="&#x10A;" horiz-adv-x="388" d="M244 720H157V809H244V720ZM254 446Q254 475 254 497T252 531Q249 555 235 569T198 584Q157 584 146 538Q142 521 142 439V227Q142 177 143 154T149 119Q163 83 198 83Q220 83 234 98T251 139Q253 153 253 183T254 236H355V198Q355 172 354 154T351 121T344 94T332 68Q313 31 279 11T199 -10Q164 -10 133 3T82 43Q70 58 62 73T50 107T44 154T42 220V446Q42 485 43 512T49 559T62 594T82 624Q102 650 132 663T199 677Q243 677 278 658T332 604Q339 592 343 581T350 555T354 524T355 482V446H254Z"  />
<glyph unicode="&#x10B;" horiz-adv-x="326" d="M210 325V365Q210 378 208 385Q203 422 168 422Q145 422 135 406T125 353V144Q125 75 168 75Q206 75 209 126Q210 131 210 145V181H300V158Q300 136 299 121T296 93T289 70T278 49Q261 23 233 8T171 -7Q139 -7 110 7T63 44Q48 65 42 91T35 161V335Q35 379 41 405T63 453Q81 476 110 490T172 504Q216 504 249 480T294 415Q298 401 299 384T300 325H210ZM213 578H126V667H213V578Z"  />
<glyph unicode="&#x10C;" horiz-adv-x="388" d="M150 720L92 800H172L201 769L229 800H309L251 720H150ZM254 446Q254 475 254 497T252 531Q249 555 235 569T198 584Q157 584 146 538Q142 521 142 439V227Q142 177 143 154T149 119Q163 83 198 83Q220 83 234 98T251 139Q253 153 253 183T254 236H355V198Q355 172 354 154T351 121T344 94T332 68Q313 31 279 11T199 -10Q164 -10 133 3T82 43Q70 58 62 73T50 107T44 154T42 220V446Q42 485 43 512T49 559T62 594T82 624Q102 650 132 663T199 677Q243 677 278 658T332 604Q339 592 343 581T350 555T354 524T355 482V446H254Z"  />
<glyph unicode="&#x10D;" horiz-adv-x="326" d="M210 325V365Q210 378 208 385Q203 422 168 422Q145 422 135 406T125 353V144Q125 75 168 75Q206 75 209 126Q210 131 210 145V181H300V158Q300 136 299 121T296 93T289 70T278 49Q261 23 233 8T171 -7Q139 -7 110 7T63 44Q48 65 42 91T35 161V335Q35 379 41 405T63 453Q81 476 110 490T172 504Q216 504 249 480T294 415Q298 401 299 384T300 325H210ZM121 580L63 660H143L171 629L200 660H280L222 580H121Z"  />
<glyph unicode="&#x10E;" horiz-adv-x="397" d="M132 720L74 800H154L182 769L211 800H291L232 720H132ZM176 93Q219 93 239 120Q249 134 252 151T256 207V460Q256 498 253 515T239 547Q219 574 176 574H145V93H176ZM45 667H187Q274 667 315 621T356 478V189Q356 92 315 46T187 0H45V667Z"  />
<glyph unicode="&#x10F;" horiz-adv-x="422" d="M422 667V569L383 486H333L364 569H331V667H422ZM209 400Q186 422 164 422Q140 422 132 404Q127 396 126 386T125 349V148Q125 122 126 112T132 93Q140 75 164 75Q186 75 209 97V400ZM299 667V0H209V48Q184 18 163 6T116 -7Q71 -7 51 33Q46 43 43 53T38 76T36 106T35 149V348Q35 373 35 390T38 421T43 444T51 464Q71 504 116 504Q142 504 163 492T209 449V667H299Z"  />
<glyph unicode="&#x110;" horiz-adv-x="397" d="M175 93Q218 93 238 120Q248 134 251 151T255 207V460Q255 498 252 515T238 547Q218 574 175 574H144V379H201V299H144V93H175ZM44 299H11V379H44V667H186Q273 667 314 621T355 478V189Q355 92 314 46T186 0H44V299Z"  />
<glyph unicode="&#x111;" horiz-adv-x="346" d="M209 400Q186 422 164 422Q140 422 132 404Q127 396 126 386T125 349V148Q125 122 126 112T132 93Q140 75 164 75Q186 75 209 97V400ZM299 667V620H346V552H299V0H209V48Q184 18 163 6T116 -7Q71 -7 51 33Q46 43 43 53T38 76T36 106T35 149V348Q35 373 35 390T38 421T43 444T51 464Q71 504 116 504Q142 504 163 492T209 449V552H142V620H209V667H299Z"  />
<glyph unicode="&#x112;" horiz-adv-x="348" d="M85 783H278V716H85V783ZM317 574H145V392H269V299H145V93H317V0H45V667H317V574Z"  />
<glyph unicode="&#x113;" horiz-adv-x="340" d="M77 653H270V586H77V653ZM214 353Q214 389 204 405T170 422Q125 422 125 353V307H214V353ZM125 232V144Q125 75 170 75Q199 75 207 99Q210 106 211 115T212 154L213 172H304V149Q304 108 299 87T281 47Q263 21 234 7T172 -7Q140 -7 111 7T64 44Q48 65 42 92T35 162V335Q35 379 41 405T63 453Q80 476 109 490T170 504Q202 504 230 491T276 453Q291 432 297 406T304 335V232H125Z"  />
<glyph unicode="&#x114;" horiz-adv-x="348" d="M293 763Q257 713 185 713Q113 713 77 763L134 797Q148 787 159 783T185 779Q199 779 210 783T237 797L293 763ZM317 574H145V392H269V299H145V93H317V0H45V667H317V574Z"  />
<glyph unicode="&#x115;" horiz-adv-x="340" d="M278 628Q243 579 170 579Q97 579 62 628L118 662Q145 645 170 645Q195 645 221 662L278 628ZM214 353Q214 389 204 405T170 422Q125 422 125 353V307H214V353ZM125 232V144Q125 75 170 75Q199 75 207 99Q210 106 211 115T212 154L213 172H304V149Q304 108 299 87T281 47Q263 21 234 7T172 -7Q140 -7 111 7T64 44Q48 65 42 92T35 162V335Q35 379 41 405T63 453Q80 476 109 490T170 504Q202 504 230 491T276 453Q291 432 297 406T304 335V232H125Z"  />
<glyph unicode="&#x116;" horiz-adv-x="348" d="M227 720H140V809H227V720ZM317 574H145V392H269V299H145V93H317V0H45V667H317V574Z"  />
<glyph unicode="&#x117;" horiz-adv-x="340" d="M218 578H131V667H218V578ZM214 353Q214 389 204 405T170 422Q125 422 125 353V307H214V353ZM125 232V144Q125 75 170 75Q199 75 207 99Q210 106 211 115T212 154L213 172H304V149Q304 108 299 87T281 47Q263 21 234 7T172 -7Q140 -7 111 7T64 44Q48 65 42 92T35 162V335Q35 379 41 405T63 453Q80 476 109 490T170 504Q202 504 230 491T276 453Q291 432 297 406T304 335V232H125Z"  />
<glyph unicode="&#x118;" horiz-adv-x="348" d="M287 0Q276 -20 270 -37T263 -66Q263 -99 297 -99Q305 -99 317 -95V-144Q305 -147 298 -148T280 -149Q242 -149 220 -131T197 -82Q197 -66 204 -45T226 0H45V667H317V574H145V392H269V299H145V93H317V0H287Z"  />
<glyph unicode="&#x119;" horiz-adv-x="340" d="M214 353Q214 389 204 405T170 422Q125 422 125 353V307H214V353ZM304 149Q304 125 303 108T297 78T286 54T269 32Q244 -9 235 -30T226 -67Q226 -99 260 -99Q269 -99 281 -95V-144Q269 -147 261 -148T244 -149Q206 -149 183 -131T160 -82Q160 -54 186 -6Q181 -7 173 -7Q140 -7 111 7T64 44Q48 64 42 91T35 162V335Q35 379 41 405T63 453Q80 476 109 490T170 504Q202 504 230 490T277 453Q292 432 298 406T304 335V232H125V144Q125 75 170 75Q199 75 207 99Q210 106 211 115T212 154L213 172H304V149Z"  />
<glyph unicode="&#x11A;" horiz-adv-x="348" d="M133 720L74 800H155L183 769L211 800H292L233 720H133ZM317 574H145V392H269V299H145V93H317V0H45V667H317V574Z"  />
<glyph unicode="&#x11B;" horiz-adv-x="340" d="M120 580L61 660H141L170 629L198 660H278L220 580H120ZM214 353Q214 389 204 405T170 422Q125 422 125 353V307H214V353ZM125 232V144Q125 75 170 75Q199 75 207 99Q210 106 211 115T212 154L213 172H304V149Q304 108 299 87T281 47Q263 21 234 7T172 -7Q140 -7 111 7T64 44Q48 65 42 92T35 162V335Q35 379 41 405T63 453Q80 476 109 490T170 504Q202 504 230 491T276 453Q291 432 297 406T304 335V232H125Z"  />
<glyph unicode="&#x11C;" horiz-adv-x="399" d="M355 0H306L288 53Q266 18 243 4T182 -10Q146 -10 118 5T72 47Q55 76 49 113T42 213V446Q42 485 43 512T49 559T62 594T82 624Q102 650 133 663T199 677Q256 677 296 646T349 559Q351 551 352 544T354 525T355 495V449H254Q254 471 254 484T253 506T253 519T252 530Q249 554 235 568T198 583Q157 583 146 537Q144 528 143 503T142 439V228Q142 188 144 159T150 120Q155 103 168 94T199 84Q219 84 232 96T251 129Q255 148 255 228V255H194V338H355V0ZM250 800L308 720H228L199 751L171 720H91L149 800H250Z"  />
<glyph unicode="&#x11D;" horiz-adv-x="339" d="M333 425Q299 425 279 405Q280 399 280 395T281 385V269Q281 233 276 211T256 170Q239 149 215 138T162 126H151Q146 126 137 127Q116 110 116 93Q116 81 128 76T171 68Q201 66 221 64T256 59T281 52T300 40Q338 11 338 -46Q338 -109 293 -143T162 -177Q90 -177 51 -154T11 -89Q11 -63 28 -45T92 -4Q62 9 49 23T35 60Q35 99 92 141Q60 164 48 191T35 269V361Q35 504 161 504Q196 504 220 491T264 448Q290 498 333 501V425ZM117 266Q117 233 126 218T158 203Q180 203 189 218T199 266V363Q199 397 190 412T158 427Q136 427 127 412T117 363V266ZM219 660L278 580H198L169 611L141 580H61L119 660H219ZM144 -13Q106 -31 106 -59Q106 -81 125 -94T175 -107Q213 -107 235 -93T258 -56Q258 -38 247 -30T208 -18Q203 -17 191 -16T144 -13Z"  />
<glyph unicode="&#x11E;" horiz-adv-x="399" d="M355 0H306L288 53Q266 18 243 4T182 -10Q146 -10 118 5T72 47Q55 76 49 113T42 213V446Q42 485 43 512T49 559T62 594T82 624Q102 650 133 663T199 677Q256 677 296 646T349 559Q351 551 352 544T354 525T355 495V449H254Q254 471 254 484T253 506T253 519T252 530Q249 554 235 568T198 583Q157 583 146 537Q144 528 143 503T142 439V228Q142 188 144 159T150 120Q155 103 168 94T199 84Q219 84 232 96T251 129Q255 148 255 228V255H194V338H355V0ZM308 763Q272 713 200 713Q128 713 91 763L148 797Q163 787 174 783T199 779Q213 779 225 783T251 797L308 763Z"  />
<glyph unicode="&#x11F;" horiz-adv-x="339" d="M333 425Q299 425 279 405Q280 399 280 395T281 385V269Q281 233 276 211T256 170Q239 149 215 138T162 126H151Q146 126 137 127Q116 110 116 93Q116 81 128 76T171 68Q201 66 221 64T256 59T281 52T300 40Q338 11 338 -46Q338 -109 293 -143T162 -177Q90 -177 51 -154T11 -89Q11 -63 28 -45T92 -4Q62 9 49 23T35 60Q35 99 92 141Q60 164 48 191T35 269V361Q35 504 161 504Q196 504 220 491T264 448Q290 498 333 501V425ZM117 266Q117 233 126 218T158 203Q180 203 189 218T199 266V363Q199 397 190 412T158 427Q136 427 127 412T117 363V266ZM277 628Q242 579 169 579Q98 579 61 628L118 662Q132 653 143 649T169 645Q194 645 221 662L277 628ZM144 -13Q106 -31 106 -59Q106 -81 125 -94T175 -107Q213 -107 235 -93T258 -56Q258 -38 247 -30T208 -18Q203 -17 191 -16T144 -13Z"  />
<glyph unicode="&#x120;" horiz-adv-x="399" d="M355 0H306L288 53Q266 18 243 4T182 -10Q146 -10 118 5T72 47Q55 76 49 113T42 213V446Q42 485 43 512T49 559T62 594T82 624Q102 650 133 663T199 677Q256 677 296 646T349 559Q351 551 352 544T354 525T355 495V449H254Q254 471 254 484T253 506T253 519T252 530Q249 554 235 568T198 583Q157 583 146 537Q144 528 143 503T142 439V228Q142 188 144 159T150 120Q155 103 168 94T199 84Q219 84 232 96T251 129Q255 148 255 228V255H194V338H355V0ZM243 720H156V809H243V720Z"  />
<glyph unicode="&#x121;" horiz-adv-x="339" d="M333 425Q299 425 279 405Q280 399 280 395T281 385V269Q281 233 276 211T256 170Q239 149 215 138T162 126H151Q146 126 137 127Q116 110 116 93Q116 81 128 76T171 68Q201 66 221 64T256 59T281 52T300 40Q338 11 338 -46Q338 -109 293 -143T162 -177Q90 -177 51 -154T11 -89Q11 -63 28 -45T92 -4Q62 9 49 23T35 60Q35 99 92 141Q60 164 48 191T35 269V361Q35 504 161 504Q196 504 220 491T264 448Q290 498 333 501V425ZM117 266Q117 233 126 218T158 203Q180 203 189 218T199 266V363Q199 397 190 412T158 427Q136 427 127 412T117 363V266ZM144 -13Q106 -31 106 -59Q106 -81 125 -94T175 -107Q213 -107 235 -93T258 -56Q258 -38 247 -30T208 -18Q203 -17 191 -16T144 -13ZM213 578H126V667H213V578Z"  />
<glyph unicode="&#x122;" horiz-adv-x="399" d="M355 0H306L288 53Q266 18 243 4T182 -10Q146 -10 118 5T72 47Q55 76 49 113T42 213V446Q42 485 43 512T49 559T62 594T82 624Q102 650 133 663T199 677Q256 677 296 646T349 559Q351 551 352 544T354 525T355 495V449H254Q254 471 254 484T253 506T253 519T252 530Q249 554 235 568T198 583Q157 583 146 537Q144 528 143 503T142 439V228Q142 188 144 159T150 120Q155 103 168 94T199 84Q219 84 232 96T251 129Q255 148 255 228V255H194V338H355V0ZM238 -115L216 -170H169L186 -115H159V-47H238V-115Z"  />
<glyph unicode="&#x123;" horiz-adv-x="339" d="M333 425Q299 425 279 405Q280 399 280 395T281 385V269Q281 233 276 211T256 170Q239 149 215 138T162 126H151Q146 126 137 127Q116 110 116 93Q116 81 128 76T171 68Q201 66 221 64T256 59T281 52T300 40Q338 11 338 -46Q338 -109 293 -143T162 -177Q90 -177 51 -154T11 -89Q11 -63 28 -45T92 -4Q62 9 49 23T35 60Q35 99 92 141Q60 164 48 191T35 269V361Q35 504 161 504Q196 504 220 491T264 448Q290 498 333 501V425ZM117 266Q117 233 126 218T158 203Q180 203 189 218T199 266V363Q199 397 190 412T158 427Q136 427 127 412T117 363V266ZM122 539V637L161 719H211L180 637H213V539H122ZM144 -13Q106 -31 106 -59Q106 -81 125 -94T175 -107Q213 -107 235 -93T258 -56Q258 -38 247 -30T208 -18Q203 -17 191 -16T144 -13Z"  />
<glyph unicode="&#x124;" horiz-adv-x="400" d="M251 800L309 720H229L200 751L172 720H92L150 800H251ZM145 301V0H45V667H145V394H256V667H356V0H256V301H145Z"  />
<glyph unicode="&#x125;" horiz-adv-x="337" d="M129 443Q160 477 182 490T232 504Q265 504 282 481Q292 467 295 449T298 387V0H208V366Q208 388 208 395T205 407Q202 422 186 422Q159 422 129 380V0H39V667H129V443ZM220 770L278 690H198L170 721L141 690H61L119 770H220Z"  />
<glyph unicode="&#x126;" horiz-adv-x="400" d="M145 394H256V492H145V394ZM5 492V559H45V667H145V559H256V667H356V559H398V492H356V0H256V301H145V0H45V492H5Z"  />
<glyph unicode="&#x127;" horiz-adv-x="337" d="M211 620V553H129V443Q160 477 183 490T233 504Q266 504 283 481Q293 467 296 449T299 387V0H209V366Q209 388 209 395T206 407Q203 422 186 422Q159 422 129 380V0H39V553H5V620H39V667H129V620H211Z"  />
<glyph unicode="&#x128;" horiz-adv-x="189" d="M145 0H45V667H145V0ZM-1 820Q14 828 26 831T54 835Q66 835 75 834T97 827Q117 819 125 817T145 815Q156 815 165 818T192 832V763Q174 752 165 749T145 746Q134 746 126 748T97 758Q84 763 75 764T54 766Q38 766 26 763T-1 750V820Z"  />
<glyph unicode="&#x129;" horiz-adv-x="167" d="M129 0H39V497H129V0ZM-12 650Q3 658 15 661T43 665Q55 665 64 664T86 657Q106 649 114 647T134 645Q145 645 154 648T181 662V593Q163 582 154 579T134 576Q123 576 115 578T86 588Q73 593 64 594T43 596Q27 596 15 593T-12 580V650Z"  />
<glyph unicode="&#x12A;" horiz-adv-x="189" d="M-2 783H191V716H-2V783ZM145 0H45V667H145V0Z"  />
<glyph unicode="&#x12B;" horiz-adv-x="167" d="M-13 653H180V586H-13V653ZM129 0H39V497H129V0Z"  />
<glyph unicode="&#x12E;" horiz-adv-x="189" d="M125 0Q101 -41 101 -66Q101 -98 135 -98Q140 -98 144 -98T155 -95V-144Q143 -146 136 -147T118 -148Q80 -148 58 -130T35 -81Q35 -49 64 0H45V667H145V0H125Z"  />
<glyph unicode="&#x12F;" horiz-adv-x="167" d="M129 577H39V667H129V577ZM114 0Q90 -41 90 -66Q90 -98 124 -98Q129 -98 133 -98T144 -95V-144Q132 -146 125 -147T107 -148Q69 -148 47 -130T24 -81Q24 -49 53 0H39V497H129V0H114Z"  />
<glyph unicode="&#x130;" horiz-adv-x="189" d="M139 720H52V809H139V720ZM145 0H45V667H145V0Z"  />
<glyph unicode="&#x131;" horiz-adv-x="167" d="M129 0H39V497H129V0Z"  />
<glyph unicode="&#x132;" horiz-adv-x="420" d="M376 667V210Q376 174 375 149T370 104T362 71T348 44Q319 0 248 0H200V93H224Q253 93 264 115T276 194V667H376ZM145 0H45V667H145V0Z"  />
<glyph unicode="&#x133;" horiz-adv-x="343" d="M304 577H214V667H304V577ZM304 497V-13Q304 -39 304 -57T301 -87T296 -109T286 -128Q275 -148 251 -159T198 -170Q186 -170 176 -169T151 -164V-77Q159 -79 163 -79T172 -80Q195 -80 204 -67T214 -24V497H304ZM129 577H39V667H129V577ZM129 0H39V497H129V0Z"  />
<glyph unicode="&#x134;" horiz-adv-x="231" d="M186 667V210Q186 174 185 149T180 104T172 71T158 44Q129 0 58 0H10V93H34Q63 93 74 115T86 194V667H186ZM167 830L225 750H145L117 781L88 750H8L66 830H167Z"  />
<glyph unicode="&#x135;" horiz-adv-x="175" d="M136 577H46V667H136V577ZM136 497V-13Q136 -39 136 -57T133 -87T128 -109T118 -128Q107 -148 83 -159T30 -170Q18 -170 8 -169T-17 -164V-77Q-9 -79 -5 -79T4 -80Q27 -80 36 -67T46 -24V497H136ZM139 660L197 580H117L89 611L60 580H-20L38 660H139Z"  />
<glyph unicode="&#x136;" horiz-adv-x="399" d="M241 -115L219 -170H172L189 -115H162V-47H241V-115ZM145 667V400L263 667H368L253 435L383 0H276L191 310L145 218V0H45V667H145Z"  />
<glyph unicode="&#x137;" horiz-adv-x="338" d="M205 -115L183 -170H136L153 -115H126V-47H205V-115ZM129 306L221 497H312L222 331L320 0H232L169 231L129 159V0H39V667H129V306Z"  />
<glyph unicode="&#x139;" horiz-adv-x="324" d="M112 800H209L136 720H66L112 800ZM311 0H45V667H145V93H311V0Z"  />
<glyph unicode="&#x13A;" horiz-adv-x="167" d="M94 800H191L119 720H49L94 800ZM129 0H39V667H129V0Z"  />
<glyph unicode="&#x13B;" horiz-adv-x="324" d="M218 -115L196 -170H149L166 -115H139V-47H218V-115ZM311 0H45V667H145V93H311V0Z"  />
<glyph unicode="&#x13C;" horiz-adv-x="167" d="M124 -115L102 -170H55L72 -115H45V-47H124V-115ZM129 0H39V667H129V0Z"  />
<glyph unicode="&#x13D;" horiz-adv-x="324" d="M271 667V569L232 486H182L213 569H180V667H271ZM311 0H45V667H145V93H311V0Z"  />
<glyph unicode="&#x13E;" horiz-adv-x="250" d="M251 667V569L212 486H162L193 569H160V667H251ZM129 0H39V667H129V0Z"  />
<glyph unicode="&#x13F;" horiz-adv-x="324" d="M272 302H185V391H272V302ZM311 0H45V667H145V93H311V0Z"  />
<glyph unicode="&#x140;" horiz-adv-x="257" d="M258 281H171V370H258V281ZM129 0H39V667H129V0Z"  />
<glyph unicode="&#x141;" horiz-adv-x="331" d="M25 259V346L52 367V667H152V430L208 473V386L152 343V93H318V0H52V279L25 259Z"  />
<glyph unicode="&#x142;" horiz-adv-x="208" d="M196 470V389L149 354V0H59V295L13 259V340L59 375V667H149V434L196 470Z"  />
<glyph unicode="&#x143;" horiz-adv-x="420" d="M208 800H305L233 720H163L208 800ZM283 0L138 412V0H45V667H146L283 271V667H376V0H283Z"  />
<glyph unicode="&#x144;" horiz-adv-x="337" d="M175 660H272L199 580H129L175 660ZM129 443Q160 477 182 490T232 504Q265 504 282 481Q292 467 295 449T298 387V0H208V366Q208 388 208 395T205 407Q202 422 186 422Q159 422 129 380V0H39V497H129V443Z"  />
<glyph unicode="&#x145;" horiz-adv-x="420" d="M250 -115L228 -170H181L198 -115H171V-47H250V-115ZM283 0L138 412V0H45V667H146L283 271V667H376V0H283Z"  />
<glyph unicode="&#x146;" horiz-adv-x="337" d="M208 -115L186 -170H139L156 -115H129V-47H208V-115ZM129 443Q160 477 182 490T232 504Q265 504 282 481Q292 467 295 449T298 387V0H208V366Q208 388 208 395T205 407Q202 422 186 422Q159 422 129 380V0H39V497H129V443Z"  />
<glyph unicode="&#x147;" horiz-adv-x="420" d="M160 720L102 800H182L210 769L239 800H319L261 720H160ZM283 0L138 412V0H45V667H146L283 271V667H376V0H283Z"  />
<glyph unicode="&#x148;" horiz-adv-x="337" d="M127 580L68 660H149L177 629L205 660H286L227 580H127ZM129 443Q160 477 182 490T232 504Q265 504 282 481Q292 467 295 449T298 387V0H208V366Q208 388 208 395T205 407Q202 422 186 422Q159 422 129 380V0H39V497H129V443Z"  />
<glyph unicode="&#x149;" horiz-adv-x="527" d="M319 443Q350 477 372 490T422 504Q455 504 472 481Q482 467 485 449T488 387V0H398V366Q398 388 398 395T395 407Q392 422 376 422Q349 422 319 380V0H229V497H319V443ZM144 564L92 448H47L82 564H47V667H144V564Z"  />
<glyph unicode="&#x14C;" horiz-adv-x="397" d="M102 783H295V716H102V783ZM142 228Q142 178 143 154T149 119Q163 83 199 83Q240 83 251 129Q255 146 255 228V439Q255 490 254 513T248 548Q234 584 199 584Q157 584 146 538Q144 529 143 503T142 439V228ZM355 217Q355 180 353 154T347 108T335 73T315 43Q295 18 265 4T199 -10Q164 -10 133 4T82 43Q70 58 62 73T50 108T44 154T42 217V450Q42 487 43 513T49 559T62 594T82 624Q102 649 133 663T199 677Q234 677 264 663T315 624Q327 609 334 594T346 560T353 514T355 450V217Z"  />
<glyph unicode="&#x14D;" horiz-adv-x="336" d="M71 653H264V586H71V653ZM125 144Q125 108 135 92T168 75Q191 75 201 91T211 144V353Q211 389 201 405T168 422Q145 422 135 406T125 353V144ZM301 162Q301 118 295 92T273 44Q256 21 228 7T168 -7Q136 -7 108 7T63 44Q48 65 42 91T35 162V335Q35 379 41 405T63 453Q80 476 108 490T168 504Q200 504 228 490T273 453Q288 432 294 406T301 335V162Z"  />
<glyph unicode="&#x14E;" horiz-adv-x="397" d="M142 228Q142 178 143 154T149 119Q163 83 199 83Q240 83 251 129Q255 146 255 228V439Q255 490 254 513T248 548Q234 584 199 584Q157 584 146 538Q144 529 143 503T142 439V228ZM355 217Q355 180 353 154T347 108T335 73T315 43Q295 18 265 4T199 -10Q164 -10 133 4T82 43Q70 58 62 73T50 108T44 154T42 217V450Q42 487 43 513T49 559T62 594T82 624Q102 649 133 663T199 677Q234 677 264 663T315 624Q327 609 334 594T346 560T353 514T355 450V217ZM308 798Q273 749 200 749Q129 749 92 798L149 832Q163 823 174 819T200 815Q225 815 252 832L308 798Z"  />
<glyph unicode="&#x14F;" horiz-adv-x="336" d="M125 144Q125 108 135 92T168 75Q191 75 201 91T211 144V353Q211 389 201 405T168 422Q145 422 135 406T125 353V144ZM301 162Q301 118 295 92T273 44Q256 21 228 7T168 -7Q136 -7 108 7T63 44Q48 65 42 91T35 162V335Q35 379 41 405T63 453Q80 476 108 490T168 504Q200 504 228 490T273 453Q288 432 294 406T301 335V162ZM277 628Q242 579 169 579Q98 579 61 628L118 662Q132 653 143 649T169 645Q194 645 221 662L277 628Z"  />
<glyph unicode="&#x150;" horiz-adv-x="397" d="M277 800H374L302 720H232L277 800ZM137 800H234L162 720H92L137 800ZM142 228Q142 178 143 154T149 119Q163 83 199 83Q240 83 251 129Q255 146 255 228V439Q255 490 254 513T248 548Q234 584 199 584Q157 584 146 538Q144 529 143 503T142 439V228ZM355 217Q355 180 353 154T347 108T335 73T315 43Q295 18 265 4T199 -10Q164 -10 133 4T82 43Q70 58 62 73T50 108T44 154T42 217V450Q42 487 43 513T49 559T62 594T82 624Q102 649 133 663T199 677Q234 677 264 663T315 624Q327 609 334 594T346 560T353 514T355 450V217Z"  />
<glyph unicode="&#x151;" horiz-adv-x="336" d="M250 660H347L275 580H205L250 660ZM110 660H207L135 580H65L110 660ZM125 144Q125 108 135 92T168 75Q191 75 201 91T211 144V353Q211 389 201 405T168 422Q145 422 135 406T125 353V144ZM301 162Q301 118 295 92T273 44Q256 21 228 7T168 -7Q136 -7 108 7T63 44Q48 65 42 91T35 162V335Q35 379 41 405T63 453Q80 476 108 490T168 504Q200 504 228 490T273 453Q288 432 294 406T301 335V162Z"  />
<glyph unicode="&#x152;" horiz-adv-x="558" d="M254 574H223Q178 574 161 552T143 473V193Q143 137 160 115T223 93H254V574ZM526 574H354V392H477V299H354V93H526V0H212Q125 0 84 45T43 188V478Q43 575 84 621T212 667H526V574Z"  />
<glyph unicode="&#x153;" horiz-adv-x="521" d="M395 353Q395 389 385 405T351 422Q306 422 306 353V307H395V353ZM130 144Q130 108 140 92T173 75Q196 75 206 91T216 144V353Q216 422 173 422Q130 422 130 353V144ZM306 232V144Q306 75 351 75Q380 75 388 99Q391 106 392 115T393 154L394 172H485V149Q485 108 480 87T462 47Q444 21 415 7T354 -7Q304 -7 262 26Q221 -7 173 -7Q142 -7 114 7T68 44Q53 65 47 91T40 162V335Q40 379 46 405T68 453Q85 476 113 490T173 504Q220 504 261 471Q303 504 351 504Q383 504 411 491T457 453Q472 432 478 406T485 335V232H306Z"  />
<glyph unicode="&#x154;" horiz-adv-x="389" d="M180 800H277L204 720H134L180 800ZM177 371Q203 371 215 375T235 393Q243 406 247 427T252 473Q252 501 247 523T232 557Q224 567 212 570T177 574H145V371H177ZM145 0H45V667H185Q272 667 312 621T352 474Q352 409 337 371T285 305L362 0H256L193 278H145V0Z"  />
<glyph unicode="&#x155;" horiz-adv-x="236" d="M144 660H241L168 580H98L144 660ZM129 497V426Q152 467 177 484T237 504V405Q227 408 221 409T206 410Q170 410 150 385Q138 371 134 353T129 301V0H39V497H129Z"  />
<glyph unicode="&#x156;" horiz-adv-x="389" d="M233 -115L211 -170H164L181 -115H154V-47H233V-115ZM177 371Q203 371 215 375T235 393Q243 406 247 427T252 473Q252 501 247 523T232 557Q224 567 212 570T177 574H145V371H177ZM145 0H45V667H185Q272 667 312 621T352 474Q352 409 337 371T285 305L362 0H256L193 278H145V0Z"  />
<glyph unicode="&#x157;" horiz-adv-x="236" d="M127 -115L105 -170H58L75 -115H48V-47H127V-115ZM129 497V426Q152 467 177 484T237 504V405Q227 408 221 409T206 410Q170 410 150 385Q138 371 134 353T129 301V0H39V497H129Z"  />
<glyph unicode="&#x158;" horiz-adv-x="389" d="M132 720L73 800H154L182 769L210 800H291L232 720H132ZM177 371Q203 371 215 375T235 393Q243 406 247 427T252 473Q252 501 247 523T232 557Q224 567 212 570T177 574H145V371H177ZM145 0H45V667H185Q272 667 312 621T352 474Q352 409 337 371T285 305L362 0H256L193 278H145V0Z"  />
<glyph unicode="&#x159;" horiz-adv-x="236" d="M74 580L16 660H96L125 629L153 660H233L175 580H74ZM129 497V426Q152 467 176 484T236 504V405Q226 408 220 409T205 410Q129 410 129 301V0H39V497H129Z"  />
<glyph unicode="&#x15A;" horiz-adv-x="371" d="M193 800H290L218 720H148L193 800ZM243 503Q238 548 226 566T185 584Q159 584 144 566T129 518Q129 501 133 487T147 456T174 422T218 379Q257 343 282 316T321 265T341 216T347 161Q347 123 336 92T303 38T253 3T189 -10Q152 -10 122 3T71 39T37 96T23 170L118 187Q122 83 189 83Q217 83 233 102T250 156Q250 193 224 228Q218 236 213 242T200 256T180 276T146 307Q114 336 93 361T58 411T38 459T32 512Q32 587 75 632T189 677Q322 677 340 517L243 503Z"  />
<glyph unicode="&#x15B;" horiz-adv-x="313" d="M165 660H262L190 580H120L165 660ZM206 360Q199 395 188 408T156 422Q137 422 126 410T114 378Q114 367 117 359T127 340T147 319T180 293Q216 266 238 246T273 206T291 168T296 124Q296 64 260 29T160 -7Q37 -7 15 136L100 156Q109 111 123 93T162 75Q182 75 194 87T206 122Q206 133 204 142T194 160T175 180T144 205Q108 232 85 253T49 293T30 332T24 375Q24 433 61 468T159 504Q273 504 292 380L206 360Z"  />
<glyph unicode="&#x15C;" horiz-adv-x="371" d="M235 800L294 720H213L185 751L157 720H77L135 800H235ZM243 503Q238 548 226 566T185 584Q159 584 144 566T129 518Q129 501 133 487T147 456T174 422T218 379Q257 343 282 316T321 265T341 216T347 161Q347 123 336 92T303 38T253 3T189 -10Q152 -10 122 3T71 39T37 96T23 170L118 187Q122 83 189 83Q217 83 233 102T250 156Q250 193 224 228Q218 236 213 242T200 256T180 276T146 307Q114 336 93 361T58 411T38 459T32 512Q32 587 75 632T189 677Q322 677 340 517L243 503Z"  />
<glyph unicode="&#x15D;" horiz-adv-x="313" d="M209 660L268 580H187L159 611L131 580H50L109 660H209ZM206 360Q199 395 188 408T156 422Q137 422 126 410T114 378Q114 367 117 359T127 340T147 319T180 293Q216 266 238 246T273 206T291 168T296 124Q296 64 260 29T160 -7Q37 -7 15 136L100 156Q109 111 123 93T162 75Q182 75 194 87T206 122Q206 133 204 142T194 160T175 180T144 205Q108 232 85 253T49 293T30 332T24 375Q24 433 61 468T159 504Q273 504 292 380L206 360Z"  />
<glyph unicode="&#x15E;" horiz-adv-x="371" d="M225 -115L203 -170H156L173 -115H146V-47H225V-115ZM243 503Q238 548 226 566T185 584Q159 584 144 566T129 518Q129 501 133 487T147 456T174 422T218 379Q257 343 282 316T321 265T341 216T347 161Q347 123 336 92T303 38T253 3T189 -10Q152 -10 122 3T71 39T37 96T23 170L118 187Q122 83 189 83Q217 83 233 102T250 156Q250 193 224 228Q218 236 213 242T200 256T180 276T146 307Q114 336 93 361T58 411T38 459T32 512Q32 587 75 632T189 677Q322 677 340 517L243 503Z"  />
<glyph unicode="&#x15F;" horiz-adv-x="313" d="M195 -115L173 -170H126L143 -115H116V-47H195V-115ZM206 360Q199 395 188 408T156 422Q137 422 126 410T114 378Q114 367 117 359T127 340T147 319T180 293Q216 266 238 246T273 206T291 168T296 124Q296 64 260 29T160 -7Q37 -7 15 136L100 156Q109 111 123 93T162 75Q182 75 194 87T206 122Q206 133 204 142T194 160T175 180T144 205Q108 232 85 253T49 293T30 332T24 375Q24 433 61 468T159 504Q273 504 292 380L206 360Z"  />
<glyph unicode="&#x160;" horiz-adv-x="371" d="M141 720L83 800H163L191 769L220 800H300L242 720H141ZM243 503Q238 548 226 566T185 584Q159 584 144 566T129 518Q129 501 133 487T147 456T174 422T218 379Q257 343 282 316T321 265T341 216T347 161Q347 123 336 92T303 38T253 3T189 -10Q152 -10 122 3T71 39T37 96T23 170L118 187Q122 83 189 83Q217 83 233 102T250 156Q250 193 224 228Q218 236 213 242T200 256T180 276T146 307Q114 336 93 361T58 411T38 459T32 512Q32 587 75 632T189 677Q322 677 340 517L243 503Z"  />
<glyph unicode="&#x161;" horiz-adv-x="313" d="M107 580L48 660H129L157 629L185 660H265L207 580H107ZM206 360Q199 395 188 408T156 422Q137 422 126 410T114 378Q114 367 117 359T127 340T147 319T180 293Q216 266 238 246T273 206T291 168T296 124Q296 64 260 29T160 -7Q37 -7 15 136L100 156Q109 111 123 93T162 75Q182 75 194 87T206 122Q206 133 204 142T194 160T175 180T144 205Q108 232 85 253T49 293T30 332T24 375Q24 433 61 468T159 504Q273 504 292 380L206 360Z"  />
<glyph unicode="&#x162;" horiz-adv-x="328" d="M213 0H113V574H7V667H321V574H213V0ZM205 -115L183 -170H136L153 -115H126V-47H205V-115Z"  />
<glyph unicode="&#x163;" horiz-adv-x="244" d="M235 415H160V168Q160 117 169 100T208 83Q219 83 235 87V2Q215 -3 201 -5T171 -7Q118 -7 92 30Q85 39 81 48T75 68T71 94T70 133V415H15V497H70V633H160V497H235V415ZM163 -115L141 -170H94L111 -115H84V-47H163V-115Z"  />
<glyph unicode="&#x164;" horiz-adv-x="328" d="M114 720L56 800H136L164 769L193 800H273L214 720H114ZM213 0H113V574H7V667H321V574H213V0Z"  />
<glyph unicode="&#x165;" horiz-adv-x="286" d="M285 730V632L246 549H196L227 632H194V730H285ZM235 415H160V168Q160 117 169 100T208 83Q219 83 235 87V2Q215 -3 201 -5T171 -7Q118 -7 92 30Q85 39 81 48T75 68T71 94T70 133V415H15V497H70V633H160V497H235V415Z"  />
<glyph unicode="&#x166;" horiz-adv-x="529" d="M493 412V343H314V0H216V343H36V412H216V584H-3V667H532V584H314V412H493Z"  />
<glyph unicode="&#x167;" horiz-adv-x="300" d="M260 341V285H181V150Q181 121 183 108T190 86Q203 64 245 64Q261 64 284 68V0Q262 -2 249 -3T220 -4Q136 -4 109 39Q104 47 101 55T95 75T92 100T91 136V285H25V341H91V421H5V481H91V632H181V481H284V421H181V341H260Z"  />
<glyph unicode="&#x168;" horiz-adv-x="403" d="M358 667V217Q358 180 356 154T350 108T338 73T318 43Q298 18 268 4T202 -10Q167 -10 136 4T85 43Q73 58 65 73T53 108T47 154T45 217V667H145V228Q145 178 146 154T152 119Q166 83 202 83Q243 83 254 129Q258 146 258 228V667H358ZM106 820Q121 828 133 831T161 835Q173 835 182 834T204 827Q224 819 232 817T252 815Q263 815 272 818T299 832V763Q281 752 272 749T252 746Q241 746 233 748T204 758Q191 763 182 764T161 766Q145 766 133 763T106 750V820Z"  />
<glyph unicode="&#x169;" horiz-adv-x="337" d="M72 650Q87 658 99 661T127 665Q139 665 148 664T170 657Q190 649 198 647T218 645Q229 645 238 648T265 662V593Q247 582 238 579T218 576Q207 576 199 578T170 588Q157 593 148 594T127 596Q111 596 99 593T72 580V650ZM298 0H208V54Q192 37 179 25T154 6T130 -4T105 -7Q72 -7 55 16Q45 30 42 48T39 110V497H129V131Q129 109 129 102T132 90Q135 75 151 75Q178 75 208 117V497H298V0Z"  />
<glyph unicode="&#x16A;" horiz-adv-x="403" d="M105 783H298V716H105V783ZM358 667V217Q358 180 356 154T350 108T338 73T318 43Q298 18 268 4T202 -10Q167 -10 136 4T85 43Q73 58 65 73T53 108T47 154T45 217V667H145V228Q145 178 146 154T152 119Q166 83 202 83Q243 83 254 129Q258 146 258 228V667H358Z"  />
<glyph unicode="&#x16B;" horiz-adv-x="337" d="M72 653H265V586H72V653ZM298 0H208V54Q192 37 179 25T154 6T130 -4T105 -7Q72 -7 55 16Q45 30 42 48T39 110V497H129V131Q129 109 129 102T132 90Q135 75 151 75Q178 75 208 117V497H298V0Z"  />
<glyph unicode="&#x16C;" horiz-adv-x="403" d="M358 667V217Q358 180 356 154T350 108T338 73T318 43Q298 18 268 4T202 -10Q167 -10 136 4T85 43Q73 58 65 73T53 108T47 154T45 217V667H145V228Q145 178 146 154T152 119Q166 83 202 83Q243 83 254 129Q258 146 258 228V667H358ZM311 798Q276 749 203 749Q132 749 95 798L152 832Q166 823 177 819T203 815Q228 815 255 832L311 798Z"  />
<glyph unicode="&#x16D;" horiz-adv-x="337" d="M277 628Q242 579 169 579Q96 579 61 628L117 662Q144 645 169 645Q194 645 220 662L277 628ZM298 0H208V54Q192 37 179 25T154 6T130 -4T105 -7Q72 -7 55 16Q45 30 42 48T39 110V497H129V131Q129 109 129 102T132 90Q135 75 151 75Q178 75 208 117V497H298V0Z"  />
<glyph unicode="&#x16E;" horiz-adv-x="403" d="M202 811Q187 811 176 801T165 777Q165 763 176 753T202 742Q217 742 227 752T238 777Q238 791 228 801T202 811ZM202 846Q232 846 253 826T275 777Q275 748 254 728T202 707Q171 707 150 727T128 777Q128 806 149 826T202 846ZM358 667V217Q358 180 356 154T350 108T338 73T318 43Q298 18 268 4T202 -10Q167 -10 136 4T85 43Q73 58 65 73T53 108T47 154T45 217V667H145V228Q145 178 146 154T152 119Q166 83 202 83Q243 83 254 129Q258 146 258 228V667H358Z"  />
<glyph unicode="&#x16F;" horiz-adv-x="337" d="M169 663Q154 663 143 653T132 629Q132 615 143 605T169 594Q184 594 194 604T205 629Q205 643 195 653T169 663ZM169 698Q199 698 220 678T242 629Q242 600 221 580T169 559Q138 559 117 579T95 629Q95 658 116 678T169 698ZM298 0H208V54Q192 37 179 25T154 6T130 -4T105 -7Q72 -7 55 16Q45 30 42 48T39 110V497H129V131Q129 109 129 102T132 90Q135 75 151 75Q178 75 208 117V497H298V0Z"  />
<glyph unicode="&#x170;" horiz-adv-x="403" d="M276 800H373L301 720H230L276 800ZM136 800H233L161 720H90L136 800ZM358 667V217Q358 180 356 154T350 108T338 73T318 43Q298 18 268 4T202 -10Q167 -10 136 4T85 43Q73 58 65 73T53 108T47 154T45 217V667H145V228Q145 178 146 154T152 119Q166 83 202 83Q243 83 254 129Q258 146 258 228V667H358Z"  />
<glyph unicode="&#x171;" horiz-adv-x="337" d="M253 660H350L278 580H208L253 660ZM113 660H210L138 580H68L113 660ZM298 0H208V54Q192 37 179 25T154 6T130 -4T105 -7Q72 -7 55 16Q45 30 42 48T39 110V497H129V131Q129 109 129 102T132 90Q135 75 151 75Q178 75 208 117V497H298V0Z"  />
<glyph unicode="&#x172;" horiz-adv-x="403" d="M358 217Q358 175 356 146T347 95T330 57T303 27Q289 1 281 -13T270 -37T265 -53T264 -66Q264 -99 298 -99Q307 -99 319 -95V-144Q307 -147 299 -148T282 -149Q244 -149 221 -131T198 -82Q198 -52 223 -9Q217 -10 212 -10H202Q167 -10 136 3T85 43Q73 58 65 73T53 108T47 154T45 217V667H145V228Q145 178 146 154T152 119Q166 83 202 83Q243 83 254 129Q258 146 258 228V667H358V217Z"  />
<glyph unicode="&#x173;" horiz-adv-x="337" d="M281 0Q256 -40 256 -66Q256 -99 290 -99Q299 -99 311 -95V-144Q299 -147 291 -148T274 -149Q236 -149 213 -131T190 -82Q190 -52 219 0H208V54Q192 37 179 25T154 6T130 -4T105 -7Q72 -7 55 16Q45 30 42 48T39 110V497H129V131Q129 109 129 102T132 90Q135 75 151 75Q178 75 208 117V497H298V0H281Z"  />
<glyph unicode="&#x174;" horiz-adv-x="550" d="M325 800L384 720H303L275 751L247 720H166L225 800H325ZM342 0L273 404L207 0H120L20 667H120L170 268L233 667H316L382 268L433 667H530L429 0H342Z"  />
<glyph unicode="&#x175;" horiz-adv-x="469" d="M288 0L236 284L187 0H108L17 497H102L150 207L200 497H271L325 214L371 497H453L368 0H288ZM286 660L344 580H264L236 611L207 580H127L185 660H286Z"  />
<glyph unicode="&#x176;" horiz-adv-x="372" d="M236 800L294 720H214L185 751L157 720H77L135 800H236ZM238 0H138V270L13 667H117L188 405L257 667H358L238 270V0Z"  />
<glyph unicode="&#x177;" horiz-adv-x="320" d="M303 497L202 -13Q195 -48 190 -69T181 -104T171 -125T158 -142Q127 -177 55 -177Q45 -177 39 -177T23 -174V-86Q28 -87 33 -87H41Q84 -87 103 -54Q107 -46 110 -37T118 -6L17 497H107L161 177L214 497H303ZM211 660L269 580H189L160 611L132 580H52L110 660H211Z"  />
<glyph unicode="&#x178;" horiz-adv-x="372" d="M299 720H212V809H299V720ZM159 720H72V809H159V720ZM238 0H138V270L13 667H117L188 405L257 667H358L238 270V0Z"  />
<glyph unicode="&#x179;" horiz-adv-x="352" d="M195 800H292L220 720H150L195 800ZM326 0H27V93L220 574H42V667H326V574L134 93H326V0Z"  />
<glyph unicode="&#x17A;" horiz-adv-x="309" d="M168 660H265L193 580H123L168 660ZM278 0H27V77L179 415H40V497H278V415L130 82H278V0Z"  />
<glyph unicode="&#x17B;" horiz-adv-x="352" d="M233 720H146V809H233V720ZM326 0H27V93L220 574H42V667H326V574L134 93H326V0Z"  />
<glyph unicode="&#x17C;" horiz-adv-x="309" d="M206 578H119V667H206V578ZM278 0H27V77L179 415H40V497H278V415L130 82H278V0Z"  />
<glyph unicode="&#x17D;" horiz-adv-x="352" d="M139 720L80 800H161L189 769L217 800H298L239 720H139ZM326 0H27V93L220 574H42V667H326V574L134 93H326V0Z"  />
<glyph unicode="&#x17E;" horiz-adv-x="309" d="M119 580L60 660H140L169 629L197 660H277L219 580H119ZM278 0H27V77L179 415H40V497H278V415L130 82H278V0Z"  />
<glyph unicode="&#x192;" horiz-adv-x="380" d="M327 483L311 401H233L122 -170H32L143 401H67L83 483H159L186 621Q193 656 200 674T225 707Q261 740 317 740Q344 740 365 733L350 656Q341 658 336 658H326Q302 658 290 644T271 595L249 483H327Z"  />
<glyph unicode="&#x218;" horiz-adv-x="371" d="M225 -115L203 -170H156L173 -115H146V-47H225V-115ZM243 503Q238 548 226 566T185 584Q159 584 144 566T129 518Q129 501 133 487T147 456T174 422T218 379Q257 343 282 316T321 265T341 216T347 161Q347 123 336 92T303 38T253 3T189 -10Q152 -10 122 3T71 39T37 96T23 170L118 187Q122 83 189 83Q217 83 233 102T250 156Q250 193 224 228Q218 236 213 242T200 256T180 276T146 307Q114 336 93 361T58 411T38 459T32 512Q32 587 75 632T189 677Q322 677 340 517L243 503Z"  />
<glyph unicode="&#x219;" horiz-adv-x="313" d="M195 -115L173 -170H126L143 -115H116V-47H195V-115ZM206 360Q199 395 188 408T156 422Q137 422 126 410T114 378Q114 367 117 359T127 340T147 319T180 293Q216 266 238 246T273 206T291 168T296 124Q296 64 260 29T160 -7Q37 -7 15 136L100 156Q109 111 123 93T162 75Q182 75 194 87T206 122Q206 133 204 142T194 160T175 180T144 205Q108 232 85 253T49 293T30 332T24 375Q24 433 61 468T159 504Q273 504 292 380L206 360Z"  />
<glyph unicode="&#x21A;" horiz-adv-x="328" d="M204 -115L182 -170H135L152 -115H125V-47H204V-115ZM213 0H113V574H7V667H321V574H213V0Z"  />
<glyph unicode="&#x21B;" horiz-adv-x="244" d="M173 -115L151 -170H104L121 -115H94V-47H173V-115ZM235 415H160V168Q160 117 169 100T208 83Q219 83 235 87V2Q215 -3 201 -5T171 -7Q118 -7 92 30Q85 39 81 48T75 68T71 94T70 133V415H15V497H70V633H160V497H235V415Z"  />
<glyph unicode="&#x2C6;" horiz-adv-x="500" d="M300 660L358 580H278L250 611L221 580H141L199 660H300Z"  />
<glyph unicode="&#x2C7;" horiz-adv-x="500" d="M199 580L141 660H221L250 629L278 660H358L300 580H199Z"  />
<glyph unicode="&#x2C9;" horiz-adv-x="500" d="M153 653H346V586H153V653Z"  />
<glyph unicode="&#x2D8;" horiz-adv-x="500" d="M358 628Q323 579 250 579Q179 579 142 628L199 662Q213 653 224 649T250 645Q275 645 302 662L358 628Z"  />
<glyph unicode="&#x2D9;" horiz-adv-x="500" d="M294 578H207V667H294V578Z"  />
<glyph unicode="&#x2DA;" horiz-adv-x="500" d="M251 663Q236 663 225 653T214 629Q214 615 225 605T251 594Q266 594 276 604T287 629Q287 643 277 653T251 663ZM251 698Q281 698 302 678T324 629Q324 600 303 580T251 559Q220 559 199 579T177 629Q177 658 198 678T251 698Z"  />
<glyph unicode="&#x2DB;" horiz-adv-x="500" d="M355 18Q335 -18 328 -35T321 -67Q321 -99 355 -99Q363 -99 375 -95V-144Q363 -147 355 -148T338 -149Q300 -149 278 -131T255 -82Q255 -63 264 -40T295 18H355Z"  />
<glyph unicode="&#x2DC;" horiz-adv-x="500" d="M153 650Q168 658 180 661T208 665Q220 665 229 664T251 657Q271 649 279 647T299 645Q310 645 319 648T346 662V593Q328 582 319 579T299 576Q288 576 280 578T251 588Q238 593 229 594T208 596Q192 596 180 593T153 580V650Z"  />
<glyph unicode="&#x2DD;" horiz-adv-x="500" d="M318 660H414L342 580H272L318 660ZM178 660H274L202 580H132L178 660Z"  />
<glyph unicode="&#x394;" horiz-adv-x="629" d="M501 81L315 568L127 81H501ZM266 667H362L622 0H7L266 667Z"  />
<glyph unicode="&#x3A9;" horiz-adv-x="666" d="M28 81H200Q26 184 26 365Q26 432 50 490T115 591T212 658T333 683Q397 683 453 659T551 591T617 490T641 365Q641 184 467 81H639V0H376V75Q460 121 503 190T547 349Q547 402 531 448T485 528T418 581T334 601Q289 601 250 582T182 528T137 448T120 349Q120 169 290 75V0H28V81Z"  />
<glyph unicode="&#x3BC;" horiz-adv-x="337" d="M298 497V0H208V40Q200 13 191 3T164 -7Q151 -7 143 -1T129 23V-170H39V497H129V127Q129 91 137 77T166 62Q196 62 208 102V497H298Z"  />
<glyph unicode="&#x3C0;" horiz-adv-x="534" d="M68 409H1V480H534V409H468V0H378V409H158V0H68V409Z"  />
<glyph unicode="&#x2013;" horiz-adv-x="380" d="M338 208H43V298H338V208Z"  />
<glyph unicode="&#x2014;" horiz-adv-x="429" d="M429 208H0V298H429V208Z"  />
<glyph unicode="&#x2018;" horiz-adv-x="190" d="M47 551L99 667H144L109 551H144V448H47V551Z"  />
<glyph unicode="&#x2019;" horiz-adv-x="190" d="M144 564L92 448H47L82 564H47V667H144V564Z"  />
<glyph unicode="&#x201A;" horiz-adv-x="190" d="M144 0L92 -116H47L82 0H47V103H144V0Z"  />
<glyph unicode="&#x201C;" horiz-adv-x="327" d="M47 551L99 667H144L109 551H144V448H47V551ZM183 551L235 667H280L245 551H280V448H183V551Z"  />
<glyph unicode="&#x201D;" horiz-adv-x="327" d="M280 564L228 448H183L218 564H183V667H280V564ZM144 564L92 448H47L82 564H47V667H144V564Z"  />
<glyph unicode="&#x201E;" horiz-adv-x="327" d="M280 0L228 -116H183L218 0H183V103H280V0ZM144 0L92 -116H47L82 0H47V103H144V0Z"  />
<glyph unicode="&#x2020;" horiz-adv-x="388" d="M348 420H239V0H149V420H40V502H149V667H239V502H348V420Z"  />
<glyph unicode="&#x2021;" horiz-adv-x="388" d="M348 420H239V247H348V165H239V0H149V165H40V247H149V420H40V502H149V667H239V502H348V420Z"  />
<glyph unicode="&#x2022;" horiz-adv-x="667" d="M337 478Q365 478 389 467T432 437T462 393T473 340Q473 311 462 286T433 242T389 212T335 201Q306 201 281 212T237 241T207 285T196 339Q196 368 207 393T237 437T281 467T337 478Z"  />
<glyph unicode="&#x2026;" horiz-adv-x="540" d="M499 0H402V103H499V0ZM319 0H222V103H319V0ZM139 0H42V103H139V0Z"  />
<glyph unicode="&#x2030;" horiz-adv-x="748" d="M602 91Q602 60 607 51T627 41Q641 41 646 50T651 91V240Q651 270 646 279T627 289Q612 289 607 280T602 240V91ZM708 92Q708 64 705 49T691 21Q680 6 664 -2T627 -10Q585 -10 562 21Q552 34 549 49T545 92V239Q545 267 548 282T562 310Q584 340 627 340Q647 340 663 332T691 310Q701 297 704 282T708 239V92ZM386 91Q386 60 391 51T411 41Q425 41 430 50T435 91V240Q435 270 430 279T411 289Q396 289 391 280T386 240V91ZM492 92Q492 64 489 49T475 21Q464 6 448 -2T411 -10Q369 -10 346 21Q336 34 333 49T329 92V239Q329 267 332 282T346 310Q368 340 411 340Q431 340 447 332T475 310Q485 297 488 282T492 239V92ZM440 667L152 0H92L380 667H440ZM97 428Q97 397 102 388T122 378Q136 378 141 387T146 428V576Q146 607 141 616T122 626Q107 626 102 617T97 576V428ZM203 428Q203 400 200 385T186 357Q175 343 158 335T122 327Q102 327 85 335T57 357Q47 370 44 385T40 428V576Q40 603 43 618T57 647Q79 677 122 677Q142 677 158 669T186 647Q196 634 199 619T203 576V428Z"  />
<glyph unicode="&#x2039;" horiz-adv-x="170" d="M40 182V325L130 407V287L99 253L130 219V100L40 182Z"  />
<glyph unicode="&#x203A;" horiz-adv-x="170" d="M130 325V182L40 100V219L71 253L40 287V407L130 325Z"  />
<glyph unicode="&#x2044;" horiz-adv-x="86" d="M130 700H180L-47 -33H-93L130 700Z"  />
<glyph unicode="&#x20AC;" horiz-adv-x="380" d="M63 446Q63 485 64 512T70 559T83 594T103 624Q123 650 153 663T220 677Q277 677 317 645T371 559Q373 548 374 534T376 490H275Q274 504 274 513T273 531Q270 555 256 569T219 584Q178 584 167 538Q163 521 163 439V403H323L297 341H163V307H283L257 245H163V228Q163 177 164 154T170 119Q184 83 219 83Q260 83 270 129Q272 134 272 142L274 168H376Q374 138 372 124T364 91Q346 43 309 17T220 -10Q185 -10 154 3T103 43Q91 58 83 73T71 107T65 154T63 221V245H-5L21 307H63V341H-5L21 403H63V446Z"  />
<glyph unicode="&#x2113;" horiz-adv-x="500" d="M257 323Q260 327 261 328L266 333Q290 360 311 393T348 460T373 528T382 589Q382 604 376 614T358 624Q344 624 332 609T307 558T283 466T257 323ZM248 264Q243 235 238 204T229 145T223 95T220 64Q220 39 237 39Q249 39 259 50T283 91Q292 110 304 110Q319 110 319 93Q319 82 314 68T298 37Q263 -19 215 -19Q141 -19 141 81Q141 97 142 119T148 188Q132 171 117 158T96 145Q91 145 87 151T82 165Q82 172 85 178T100 193Q111 204 122 216T155 255Q195 471 243 572T357 674Q389 674 407 651T426 588Q426 546 408 494T357 393Q340 367 315 337T248 264Z"  />
<glyph unicode="&#x2122;" horiz-adv-x="553" d="M453 287V520L398 287H363L306 521V287H245V667H329L381 453L429 667H514V287H453ZM154 287H89V608H27V667H216V608H154V287Z"  />
<glyph unicode="&#x2126;" horiz-adv-x="666" d="M28 81H200Q26 184 26 365Q26 432 50 490T115 591T212 658T333 683Q397 683 453 659T551 591T617 490T641 365Q641 184 467 81H639V0H376V75Q460 121 503 190T547 349Q547 402 531 448T485 528T418 581T334 601Q289 601 250 582T182 528T137 448T120 349Q120 169 290 75V0H28V81Z"  />
<glyph unicode="&#x212E;" horiz-adv-x="763" d="M539 386Q544 386 548 392Q550 395 551 398Q551 447 535 477T493 529Q468 549 439 556T381 563Q354 563 326 555T274 527Q247 506 229 472T211 386H539ZM731 295H211V258Q211 216 223 186T255 134Q281 106 315 94T381 81Q425 81 463 89T531 117T584 167T621 243Q637 249 656 249Q672 249 687 244T713 227Q710 192 689 151T627 73T524 13T381 -11Q303 -11 239 18T129 94T58 200T32 322Q32 383 57 443T129 550T239 626T381 655Q459 655 523 626T633 550T705 442T731 321V295Z"  />
<glyph unicode="&#x2202;" horiz-adv-x="500" d="M255 364Q225 364 199 353T154 321T123 273T112 213Q112 183 123 156T152 108T196 76T249 64Q278 64 303 75T346 107T375 156T386 217Q386 248 376 275T349 322T307 353T255 364ZM90 669Q134 663 170 655T236 634T292 604T343 564Q406 506 438 425T471 245Q471 194 462 157T431 87Q400 41 353 16T250 -10Q203 -10 163 7T93 55T46 126T29 214Q29 260 45 300T88 370T153 417T234 434Q261 434 289 427T334 407Q342 402 350 394T376 366L370 378Q363 392 357 407T343 439Q310 502 240 543T79 595L90 669Z"  />
<glyph unicode="&#x2206;" horiz-adv-x="629" d="M501 81L315 568L127 81H501ZM266 667H362L622 0H7L266 667Z"  />
<glyph unicode="&#x220F;" horiz-adv-x="667" d="M642 750V675H569V-175H642V-250H411V-175H485V675H182V-175H254V-250H25V-175H99V675H25V750H642Z"  />
<glyph unicode="&#x2211;" horiz-adv-x="667" d="M603 515H519L509 664H137L385 269L138 -165H519L524 -13H612V-250H34V-151L275 269L34 652V750H603V515Z"  />
<glyph unicode="&#x2212;" horiz-adv-x="380" d="M338 301H43V379H338V301Z"  />
<glyph unicode="&#x2215;" horiz-adv-x="371" d="M351 667L84 -67H13L280 667H351Z"  />
<glyph unicode="&#x2219;" horiz-adv-x="180" d="M139 202H42V305H139V202Z"  />
<glyph unicode="&#x221A;" horiz-adv-x="667" d="M667 749H480L265 0H161L82 284H0V362H136L175 230Q176 225 177 219T182 200T190 161T205 93H210L215 114L248 249Q251 262 253 271T261 299T275 349T301 441L412 827H667V749Z"  />
<glyph unicode="&#x221E;" horiz-adv-x="667" d="M300 340Q268 390 240 411T176 433Q138 433 113 407T88 341Q88 300 113 274T177 248Q211 248 238 268T300 340ZM367 341Q400 290 428 269T492 248Q530 248 555 274T580 340Q580 381 555 407T491 433Q457 433 429 412T367 341ZM335 295Q296 239 257 214T169 188Q136 188 109 199T61 231T30 279T19 342Q19 375 30 402T61 450T109 482T170 493Q260 493 333 386Q371 442 410 467T499 493Q532 493 560 482T607 450T638 402T649 340Q649 307 638 279T607 231T560 199T500 188Q451 188 412 213T335 295Z"  />
<glyph unicode="&#x222B;" horiz-adv-x="500" d="M103 -152Q126 -163 143 -163Q186 -163 197 -127Q198 -123 199 -119T200 -105T201 -79V518Q201 561 201 585T203 622T205 643T210 661Q221 703 258 726T346 750Q363 750 377 748T416 740L398 653Q385 658 377 660T357 662Q315 662 304 626Q302 618 301 604T300 562V-15Q300 -63 299 -92T296 -140T288 -170T274 -194Q234 -248 136 -248Q119 -248 109 -246T85 -239L103 -152Z"  />
<glyph unicode="&#x2248;" horiz-adv-x="500" d="M10 200Q63 319 149 319Q169 319 195 311T264 281Q285 271 298 265T321 256T338 251T353 250Q366 250 376 253T397 263T417 283T440 315L490 280Q464 220 428 192T342 163Q332 163 324 164T303 169T273 182T225 206Q172 231 145 231Q121 231 103 217T60 165L10 200ZM10 383Q63 502 149 502Q169 502 195 494T264 464Q285 454 298 448T321 439T338 434T353 433Q366 433 376 436T397 446T417 466T440 499L490 464Q464 403 428 375T342 346Q332 346 323 347T302 353T271 366T225 389Q172 414 145 414Q121 414 103 400T60 348L10 383Z"  />
<glyph unicode="&#x2260;" horiz-adv-x="380" d="M338 456V378H250L219 302H338V224H188L155 144L83 173L104 224H43V302H135L166 378H43V456H197L229 534L301 505L281 456H338Z"  />
<glyph unicode="&#x2264;" horiz-adv-x="500" d="M466 65H33V151H466V65ZM466 516L140 393L466 271V179L33 352V435L466 608V516Z"  />
<glyph unicode="&#x2265;" horiz-adv-x="500" d="M33 151H466V65H33V151ZM33 271L359 393L33 516V608L466 435V352L33 179V271Z"  />
<glyph unicode="&#x25CA;" horiz-adv-x="667" d="M137 334L334 63L531 334L334 604L137 334ZM593 334L334 -26L74 334L334 693L593 334Z"  />
<glyph unicode="&#xFB01;" horiz-adv-x="362" d="M63 0V415H7V497H63V554Q63 600 73 623T110 660Q136 674 178 674Q195 674 211 672T254 665V589Q234 591 223 591T204 592Q174 592 164 580T153 529V497H323V0H233V415H153V0H63Z"  />
<glyph unicode="&#xFB02;" horiz-adv-x="362" d="M63 0V415H7V497H63V554Q63 590 67 608T85 640Q116 674 171 674H179Q182 674 187 674T201 672T225 668Q229 667 248 667H323V0H233V590Q222 592 215 592H201Q173 592 163 579T153 529V497H204V415H153V0H63Z"  />


</font>
</defs>
</svg>
